<?xml version="1.0" encoding="UTF-8"?>
<svg id="_レイヤー_1" xmlns="http://www.w3.org/2000/svg" version="1.1" viewBox="0 0 1920 1080">
  <!-- Generator: Adobe Illustrator 29.5.1, SVG Export Plug-In . SVG Version: 2.1.0 Build 141)  -->
  <defs>
    <style>
      .st0 {
        fill: #fff;
      }

      .st1 {
        isolation: isolate;
      }

      .st2, .st3 {
        fill: #f1ffb4;
      }

      .st3 {
        display: none;
      }

      .st4 {
        fill: #4a6b4f;
      }
    </style>
  </defs>
  <rect class="st3" x="20.58" y="109.52" width="1854.81" height="581.09"/>
  <path class="st4" d="M339.24,146.29c3.5.27,7.71.71,11.24,1.12,2.74.23,6.13.8,8.99,1.12,2.1.31,4.6.75,6.74,1.12,1.71.3,3.83.77,5.62,1.12s3.83.74,5.62,1.12c1.34.29,3.03.79,4.5,1.12s3.06.76,4.5,1.12,3.06.74,4.5,1.12c.56.15,2.09.76,3.37,1.12.88.25,2.25.78,3.37,1.12,1,.3,2.28.77,3.37,1.12s2.28.76,3.37,1.12,2.31.75,3.37,1.12c1.12.39,2.33.74,3.37,1.12.12.04.91.61,2.25,1.12,64.85,28.05,112.94,75.34,142.76,139.39,1.04,2.52,2.47,5.47,3.37,7.87.39,1.04.71,2.22,1.12,3.37.38,1.06.73,2.25,1.12,3.37s.77,2.29,1.12,3.37.8,2.34,1.12,3.37c.34,1.1.84,2.4,1.12,3.37.37,1.26.92,2.66,1.12,3.37.37,1.29.97,2.79,1.12,3.37.38,1.43.76,3.05,1.12,4.5s.8,3.1,1.12,4.5.85,3.18,1.12,4.5c.38,1.79.79,3.85,1.12,5.62.4,2.11.78,4.61,1.12,6.74.31,2.15.89,4.75,1.12,6.74.41,3.17.84,6.96,1.12,10.12.46,6.03,1,13.15,1.12,19.11.06,4.09.1,8.27,0,12.37-.14,5.25-.71,11.53-1.12,16.86-.29,3.16-.71,6.95-1.12,10.12-.23,1.98-.81,4.61-1.12,6.74-.34,2.14-.73,4.61-1.12,6.74-.32,1.75-.76,3.84-1.12,5.62-.27,1.31-.8,3.03-1.12,4.5-.3,1.36-.78,3.05-1.12,4.5s-.75,3.08-1.12,4.5c-.39,1.49-.73,3.08-1.12,4.5-.22.8-.78,2.24-1.12,3.37-.31,1-.77,2.29-1.12,3.37s-.76,2.29-1.12,3.37-.75,2.32-1.12,3.37c-.41,1.14-.74,2.35-1.12,3.37-.04.12-.64,1.03-1.12,2.25-1.38,3.52-2.99,7.84-4.5,11.24-28.39,61.86-78.42,108.9-140.51,136.02-1.22.49-2.13,1.08-2.25,1.12-1.03.39-2.22.71-3.37,1.12-1.05.38-2.26.74-3.37,1.12-1.31.5-2.13,1.08-2.25,1.12-1.03.39-2.24.72-3.37,1.12-1.05.37-2.29.77-3.37,1.12-1.33.44-2.92.65-4.5,1.12-1.29.36-2.86.99-3.37,1.12-1.42.37-3.09.79-4.5,1.12s-3.15.83-4.5,1.12c-1.48.32-3.19.86-4.5,1.12-1.78.36-3.88.81-5.62,1.12s-3.96.86-5.62,1.12c-2.2.35-4.63.82-6.74,1.12-2.86.32-6.26.9-8.99,1.12-4.48.52-10.12.9-14.61,1.12-8.49.3-17.36.28-25.85,0-4.48-.21-10.14-.62-14.61-1.12-3.14-.25-6.9-.76-10.12-1.12-2.1-.3-4.56-.78-6.74-1.12-1.67-.26-3.8-.8-5.62-1.12s-3.83-.77-5.62-1.12c-1.29-.26-3.02-.81-4.5-1.12-1.32-.28-3.07-.78-4.5-1.12s-3.07-.75-4.5-1.12c-.52-.13-2.08-.76-3.37-1.12-1.55-.46-3.17-.69-4.5-1.12-1.07-.35-2.32-.75-3.37-1.12-1.13-.4-2.33-.74-3.37-1.12-1.17-.44-2.35-.73-3.37-1.12-.12-.05-1.08-.65-2.25-1.12-1.15-.42-2.35-.73-3.37-1.12-1.72-.66-3.9-1.54-5.62-2.25-65.87-29.73-115.98-82.54-142.76-149.51-.37-1.07-.76-2.28-1.12-3.37s-.78-2.31-1.12-3.37-.82-2.36-1.12-3.37c-.34-1.12-.87-2.48-1.12-3.37-.36-1.27-.97-2.79-1.12-3.37-.38-1.43-.76-3.04-1.12-4.5s-.8-3.1-1.12-4.5-.84-3.16-1.12-4.5c-.32-1.48-.87-3.21-1.12-4.5-.36-1.8-.82-3.89-1.12-5.62-.38-2.14-.8-4.63-1.12-6.74-.34-2.84-.9-6.27-1.12-8.99-.42-3.55-.85-7.72-1.12-11.24-.61-12.05-.65-27.31,0-39.34.26-3.14.75-6.9,1.12-10.12.22-2.71.78-6.17,1.12-8.99.29-2.08.77-4.58,1.12-6.74.27-1.68.79-3.82,1.12-5.62s.75-3.86,1.12-5.62c.29-1.33.79-3.04,1.12-4.5s.76-3.08,1.12-4.5c.13-.49.77-2.1,1.12-3.37.42-1.52.71-3.09,1.12-4.5.29-.97.78-2.28,1.12-3.37.32-1.03.77-2.3,1.12-3.37s.75-2.32,1.12-3.37c.4-1.13.74-2.34,1.12-3.37.04-.12.62-.94,1.12-2.25,27.78-67.99,80.09-119.47,147.26-148.38,1.35-.52,2.13-1.08,2.25-1.12,1.04-.38,2.26-.74,3.37-1.12s2.3-.77,3.37-1.12,2.32-.79,3.37-1.12,2.37-.82,3.37-1.12c1.15-.35,2.56-.89,3.37-1.12,1.29-.36,2.82-.98,3.37-1.12,1.43-.38,3.06-.77,4.5-1.12s3.12-.81,4.5-1.12c1.47-.33,3.17-.84,4.5-1.12,1.78-.38,3.86-.79,5.62-1.12s3.96-.86,5.62-1.12c2.13-.34,4.72-.86,6.74-1.12,2.52-.33,5.46-.87,7.87-1.12,3.94-.38,8.49-.88,12.37-1.12,11.28-.7,25.73-.5,37.1,0h0Z"/>
  <path class="st0" d="M330.25,165.4c4.95.23,10.77.66,15.74,1.12,2.74.26,6.19.75,8.99,1.12,2.03.26,4.59.8,6.74,1.12,2.15.36,4.64.71,6.74,1.12,1.28.25,3.04.81,4.5,1.12,1.34.29,3.05.78,4.5,1.12s3.07.76,4.5,1.12,3.1.73,4.5,1.12c.69.19,2.12.76,3.37,1.12.97.29,2.28.78,3.37,1.12,1.02.32,2.3.77,3.37,1.12s2.31.75,3.37,1.12c1.61.56,3.79,1.56,5.62,2.25,60.48,26.2,109.58,73.59,134.89,134.89.34.83.58,1.97,1.12,3.37.4,1.03.68,2.18,1.12,3.37.39,1.03.72,2.23,1.12,3.37.37,1.04.77,2.3,1.12,3.37s.8,2.34,1.12,3.37c.35,1.11.83,2.38,1.12,3.37.36,1.22.94,2.69,1.12,3.37.39,1.4.76,3.05,1.12,4.5s.82,3.14,1.12,4.5c.33,1.45.86,3.2,1.12,4.5.43,2.09.75,4.58,1.12,6.74.34,2.16.84,4.68,1.12,6.74.34,2.47.89,5.51,1.12,7.87.43,4.24.89,9.29,1.12,13.49.39,8.18.29,17.64,0,25.85-.23,4.18-.68,9.28-1.12,13.49-.25,2.75-.77,6.15-1.12,8.99-.3,2.08-.75,4.62-1.12,6.74-.3,1.71-.77,3.84-1.12,5.62-.26,1.28-.81,3.03-1.12,4.5-.37,1.81-.71,3.88-1.12,5.62-.07.29-.77,1.99-1.12,3.37-.41,1.5-.71,3.13-1.12,4.5-.3.99-.78,2.28-1.12,3.37s-.76,2.3-1.12,3.37-.75,2.31-1.12,3.37c-.4,1.14-.74,2.35-1.12,3.37-.47,1.25-.74,2.4-1.12,3.37-24.79,62.41-75.71,113.76-138.26,138.26-2.75.42-2.12,1.13-2.25,1.12-1.11-.07-2.26.04-3.37,0,.92-10.14-.74-20.31-1.12-30.35.24-4.65-.17-9.38,0-14.05,48.86-23.94,84.25-59.21,103.42-110.72.56-1.41.72-2.28,1.12-3.37.45-1.21.72-2.23,1.12-3.37s.74-2.18,1.12-3.37c.49-1.65.71-2.95,1.12-4.5.16-.6.74-1.8,1.12-3.37.37-1.5.77-2.93,1.12-4.5.41-1.94.76-3.66,1.12-5.62s.84-3.58,1.12-5.62c.34-2.22.82-4.41,1.12-6.74.38-3.8.9-7.33,1.12-11.24.84-10.6.84-18.62,0-29.23-.23-3.91-.75-7.44-1.12-11.24-.31-2.35-.77-4.5-1.12-6.74-.28-2.02-.8-3.78-1.12-5.62-.36-2.02-.68-3.63-1.12-5.62-.35-1.59-.76-3-1.12-4.5-.39-1.49-.89-2.57-1.12-3.37-.43-1.48-.5-2.6-1.12-4.5-.35-1.22-.78-2.28-1.12-3.37-.38-1.19-.73-2.22-1.12-3.37-.78-2.07-1.4-3.6-2.25-5.62-19.77-52.69-57.72-90.06-110.16-110.16-.12-.04-.76-.59-2.25-1.12-1.42-.57-2.3-.72-3.37-1.12-1.24-.46-2.21-.72-3.37-1.12s-2.15-.75-3.37-1.12c-1.63-.47-2.92-.72-4.5-1.12-.46-.12-1.82-.75-3.37-1.12-1.55-.4-2.87-.77-4.5-1.12-1.94-.42-3.65-.76-5.62-1.12-2.31-.4-4.36-.8-6.74-1.12-2.24-.34-4.36-.84-6.74-1.12-3.84-.4-7.29-.92-11.24-1.12-9.49-.63-16.35-.69-25.85,0-3.94.2-7.42.75-11.24,1.12-2.77.33-5.14.69-7.87,1.12-2.02.27-3.81.82-5.62,1.12-2.02.34-3.66.71-5.62,1.12-1.58.35-3.01.76-4.5,1.12-1.6.39-2.88.67-4.5,1.12-1.45.39-2.59.9-3.37,1.12-1.22.35-2.29.78-3.37,1.12-1.18.37-2.24.74-3.37,1.12s-2.16.68-3.37,1.12c-2.04.79-3.59,1.38-5.62,2.25-52.38,21.08-89.93,59.35-109.04,112.41-.56,1.41-.72,2.29-1.12,3.37-.45,1.23-.73,2.19-1.12,3.37s-.75,2.17-1.12,3.37c-.33,1.07-.77,2.16-1.12,3.37-.4,1.53-.75,2.93-1.12,4.5-.35,1.47-.79,2.91-1.12,4.5-.3,1.4-.82,2.89-1.12,4.5-.42,2.33-.8,4.35-1.12,6.74-.43,2.73-.81,5.08-1.12,7.87-.43,4.25-.93,8.02-1.12,12.37-.43,7.92-.43,13.44,0,21.36.19,4.34.7,8.12,1.12,12.37.31,2.8.69,5.13,1.12,7.87.32,2.39.73,4.44,1.12,6.74.36,1.97.72,3.69,1.12,5.62.35,1.62.74,2.97,1.12,4.5.37,1.6,1.01,2.93,1.12,3.37.4,1.58.65,2.87,1.12,4.5.38,1.22.72,2.2,1.12,3.37s.66,2.14,1.12,3.37c.4,1.07.56,1.95,1.12,3.37.53,1.49,1.08,2.13,1.12,2.25,18.52,48.3,54.46,87.58,102.29,108.48-.28,10.28.39,20.65,0,30.91-.59,4.69-1.88,9.19-1.12,14.05-.4.9-2.3.59-3.37.56-2.16-.06-34.5-16.56-38.78-19.11-43.88-26.12-81.5-70.69-100.61-118.03-.37-.91-.62-2.06-1.12-3.37-.4-1.03-.7-2.2-1.12-3.37-.38-1.05-.73-2.25-1.12-3.37-.37-1.06-.77-2.31-1.12-3.37s-.82-2.37-1.12-3.37c-.34-1.11-.85-2.42-1.12-3.37-.4-1.4-.73-3.01-1.12-4.5s-.79-3.09-1.12-4.5-.84-3.18-1.12-4.5c-.31-1.46-.88-3.24-1.12-4.5-.41-2.11-.78-4.6-1.12-6.74-.27-2.13-.95-4.87-1.12-6.74-.41-3.17-.84-6.97-1.12-10.12-.78-13.35-.83-31.63,0-44.96.26-3.12.73-6.95,1.12-10.12.19-1.9.84-4.62,1.12-6.74.33-2.11.72-4.65,1.12-6.74.18-.95.79-2.89,1.12-4.5.36-1.77.71-3.94,1.12-5.62.09-.37.77-2,1.12-3.37.37-1.46.73-3.09,1.12-4.5.22-.79.78-2.27,1.12-3.37.31-1.01.77-2.3,1.12-3.37s.75-2.31,1.12-3.37.74-2.35,1.12-3.37c1.27-3.58,3.14-9.06,4.5-12.37,25.75-58.03,72.67-103.44,130.4-129.27.66-.29,1.74-.42,3.37-1.12,1.41-.53,2.13-1.08,2.25-1.12,1.06-.38,2.26-.74,3.37-1.12s2.31-.78,3.37-1.12,2.37-.82,3.37-1.12c1.11-.34,2.4-.84,3.37-1.12,1.25-.36,2.75-.95,3.37-1.12,1.42-.39,3.05-.76,4.5-1.12s3.1-.8,4.5-1.12,3.16-.84,4.5-1.12c1.48-.32,3.2-.86,4.5-1.12,2.12-.43,4.55-.74,6.74-1.12,2.15-.3,4.77-.9,6.74-1.12,2.81-.43,6.16-.8,8.99-1.12,4.57-.39,10.14-.98,14.61-1.12,6.66-.21,13.58-.21,20.23,0v-.02Z"/>
  <path class="st0" d="M339.24,230.6c2.28.2,5.41.81,7.87,1.12,1.96.24,4.69.77,6.74,1.12.74.13,2.99.81,4.5,1.12,1.28.27,3.12.78,4.5,1.12s3.14.74,4.5,1.12c.94.27,2.31.79,3.37,1.12s2.34.76,3.37,1.12c1.11.39,2.36.74,3.37,1.12,1.24.47,2.4.74,3.37,1.12,44.23,17.5,79.74,54.74,98.92,97.8.29.65.46,1.79,1.12,3.37.55,1.55,1.08,2.13,1.12,2.25.36,1.07.81,2.35,1.12,3.37.34,1.09.84,2.41,1.12,3.37.36,1.23.98,2.81,1.12,3.37.37,1.39.81,3.13,1.12,4.5s.86,3.21,1.12,4.5c.36,1.76.83,3.92,1.12,5.62s.89,4.01,1.12,5.62c.41,2.79.83,6.21,1.12,8.99.66,10.38.77,25.65,0,35.97-.2,2.27-.8,5.44-1.12,7.87-.21,1.93-.82,4.63-1.12,6.74-.23,1.55-.79,3.94-1.12,5.62-.24,1.23-.79,3.14-1.12,4.5-.09.37-.78,2.16-1.12,3.37-.4,1.48-.72,3.14-1.12,4.5-.3.99-.78,2.28-1.12,3.37-.33,1.03-.76,2.35-1.12,3.37-.04.12-.6.87-1.12,2.25-16.23,40.2-46.25,73.48-84.87,93.3-1.85-.4-2.48-15.95-2.81-19.11-.28-7.14-.79-14.28-1.12-21.36-.46-6.86-.95-14.54-1.12-21.36-.05-5.37-.97-25.34,1.12-28.66,1.01-1.61,11.26-5.09,14.05-7.31,14.27-11.32,20.73-22.23,26.42-39.34.47-1.27.73-2.11,1.12-3.37.29-.94.72-1.75,1.12-3.37.47-2.04.77-3.55,1.12-5.62.35-2.29.91-4.24,1.12-6.74,1.22-10.22,1.04-17.91,0-28.1-.21-2.44-.84-4.56-1.12-6.74-.33-2.06-.7-3.64-1.12-5.62-.37-1.72-.63-2.81-1.12-4.5-.34-1.29-.79-2.28-1.12-3.37-.38-1.23-.7-2.17-1.12-3.37-.5-1.27-.96-1.88-1.12-2.25-7.4-19.46-17.95-36.52-39.34-42.72-1.73-.49-2.58-.85-4.5-1.12-5.85-1.02-7.47-1.63-13.49,0-1.38.37-2.09.66-3.37,1.12-20.87,4.71-33.79,26.14-40.47,44.96-.54,1.36-.71,2.22-1.12,3.37-.44,1.22-.74,2.14-1.12,3.37-.4,1.57-.8,2.8-1.12,4.5-.52,2.1-.77,3.51-1.12,5.62-.28,2.18-.91,4.32-1.12,6.74-1.04,10.2-1.22,17.88,0,28.1.21,2.48.79,4.49,1.12,6.74.29,1.69.8,3.04,1.12,4.5.37,1.67.66,2.85,1.12,4.5.39,1.28.66,2.12,1.12,3.37.39,1.05.4,1.7,1.12,3.37,6.78,17.83,13.53,26.67,28.66,38.22,1.95,1.49,9.17,3.05,9.55,3.37.57.47,3.24,5.09,3.37,5.62.7,2.73-.18,8.92,0,12.37-.23,8.11-.83,16.54-1.12,24.73-.17,7.56-.64,16.01-1.12,23.61-.43,8.59-.65,17.29-1.12,25.85-.4,2.71-1.24,12.41-2.25,13.49-2.2-.92-3.65.83-4.5,1.12-1.1.38-3.47.53-5.62,1.12-1.62.45-4.94.86-6.74,1.12-2.69.42-6.32.88-8.99,1.12-10.3.78-26.81.8-37.1,0-2.29-.22-5.48-.77-7.87-1.12-1.84-.26-5.01-.69-6.74-1.12-1.89-.47-4.02-.64-5.62-1.12-1.26-.38-4.3-1.01-4.5-1.12-.54-.32-3.17-2.38-3.37-2.81.87-2.8-.73-5.34-1.12-7.31-.62-8.5-.63-17.28-1.12-25.85-.52-8.91-.7-18.04-1.12-26.98-.36-8.09-.97-16.72-1.12-24.73-.27-8.88-1-18.21-1.12-26.98.19-2.39-.48-5.88,0-7.87,2.06-8.57,18.07-10.86,23.61-26.98.38-1.1.72-1.55,1.12-3.37.67-3.02.86-4.83,1.12-7.87.18-2.29-.08-3.83,0-5.62.44-7.41-.17-15.04,0-22.48.02-2.66,0-5.25,0-7.87v-2.25c0-2.58-.01-5.31,0-7.87.21-18.6.65-37.63,0-56.21v-2.25c-.1-2.22.19-4.54,0-6.74-.02-.11.53.55,0-2.25-.64-4.56,1.4-3.34-2.25-5.62-3.39-2.12-8.81-1.47-12.37,0s-1.36.49-2.25,3.37c-4.45,14.41,1.65,92.19-1.12,96.11-.54.77-8.67.88-8.99.56-3.48-3.48,2.67-86.76,0-98.36-.89-1.87-2.56-1.31-3.37-1.69-3.88-1.8-7.35-1.72-11.24,0-.79.35-2.74-.61-3.37.56-.13,1.66.19,3.42,0,5.06-4.59,13.99,1.7,89.88-1.12,93.86-.65.92-7.21.92-7.87,0-2.26-3.19-.02-66.54-1.12-78.13-.18-6.11,1.74-18.86-2.25-21.36-3.39-2.12-8.81-1.47-12.37,0s-1.36.49-2.25,3.37c-3.69,11.94-2.17,100.25,0,115.78.26,2.72.43,4.06,1.12,6.74.42,1.61.47,1.83,1.12,3.37,5.84,16.75,23.14,21.61,24.73,28.1.85,3.45-.2,11.43,0,15.74-.15,8.41-.83,17.34-1.12,25.85-.18,7.98-.68,16.7-1.12,24.73-.38,8.62-.85,17.19-1.12,25.85-.51,5.58-1.94,11.13-1.12,16.86h-1.12c-38.19-20.71-65.73-51.39-83.18-91.05-.52-1.39-1.08-2.13-1.12-2.25-.37-1.06-.76-2.29-1.12-3.37s-.81-2.36-1.12-3.37c-.34-1.09-.88-2.52-1.12-3.37-.35-1.26-1.01-2.92-1.12-3.37-.35-1.4-.83-3.17-1.12-4.5-.32-1.44-.88-3.24-1.12-4.5-.34-1.76-.85-3.96-1.12-5.62-.39-2.4-.85-5.5-1.12-7.87-.33-2.75-.94-6.39-1.12-8.99-.61-8.35-.6-20.88,0-29.23.21-3.02.74-7.02,1.12-10.12.23-1.95.78-4.68,1.12-6.74.27-1.65.77-3.88,1.12-5.62.25-1.25.79-3.12,1.12-4.5s.74-3.15,1.12-4.5c.24-.85.79-2.3,1.12-3.37.32-1.01.77-2.32,1.12-3.37s.75-2.35,1.12-3.37c.43-1.16.73-2.35,1.12-3.37.55-1.43.82-2.64,1.12-3.37,17.99-42.74,54.81-77.67,96.67-96.67,1.76-.69,3.97-1.67,5.62-2.25,1.05-.37,2.3-.77,3.37-1.12s2.37-.82,3.37-1.12c1.11-.34,2.58-.9,3.37-1.12,1.38-.38,3.08-.77,4.5-1.12s3.17-.83,4.5-1.12c1.45-.32,3.23-.88,4.5-1.12,2.05-.4,4.69-.81,6.74-1.12,2.5-.25,5.63-.97,7.87-1.12,10.75-.75,27.52-.84,38.22,0l-.04.05Z"/>
  <path class="st0" d="M283.03,589.19c1.89.19,4.63.84,6.74,1.12,2.3.17,5.3.9,7.87,1.12,4.13.33,8.1.94,12.37,1.12,7.9.43,13.48.39,21.36,0,4.65-.21,8.94-.74,13.49-1.12,2.59-.23,5.54-.94,7.87-1.12,1.82-.26,4.81-1.04,5.62-1.12,1.55.08,5.98-.52,6.74.56.12,5.43-.17,10.89,0,16.3-.39,8.34-2.03,16.81-1.12,25.29-.26.72-3.77,2.56-4.5,2.81-1.71.6-5.6.69-7.87,1.12-2.9.51-7.13.85-10.12,1.12-12.23.86-30.48.83-42.72,0-3.47-.31-7.86-.6-11.24-1.12-1.84-.38-6.11-.88-6.74-1.12-1.24-.48-2.67-1.47-4.5-1.69.74-11.51-.5-22.87-1.12-34.29.18-2.78-.13-5.63,0-8.43l2.25-1.69c.59,1.96,3.95,1.04,5.62,1.12v.02Z"/>
  <g class="st1">
    <g class="st1">
      <path class="st4" d="M675.27,591.85c-10.3,0-20.12-1.7-29.46-5.1-9.33-3.4-17.58-8.37-24.75-14.9-7.17-6.53-12.81-14.63-16.91-24.3-4.11-9.67-6.16-20.83-6.16-33.5s2.05-23.83,6.16-33.5c4.11-9.67,9.74-17.8,16.91-24.4,7.17-6.6,15.42-11.57,24.75-14.9,9.33-3.33,19.15-5,29.46-5s20.27,1.67,29.46,5c9.18,3.33,17.4,8.3,24.64,14.9,7.24,6.6,12.92,14.73,17.02,24.4,4.11,9.67,6.16,20.83,6.16,33.5s-2.05,23.63-6.16,33.3c-4.11,9.67-9.78,17.8-17.02,24.4-7.25,6.6-15.46,11.6-24.64,15-9.18,3.4-19,5.1-29.46,5.1ZM675.27,584.45c7.47,0,13.92-1.8,19.38-5.4,5.45-3.6,9.97-8.57,13.55-14.9,3.58-6.33,6.27-13.8,8.06-22.4,1.79-8.6,2.69-17.83,2.69-27.7s-.9-19.27-2.69-27.8c-1.79-8.53-4.48-16-8.06-22.4-3.58-6.4-8.1-11.37-13.55-14.9-5.45-3.53-11.91-5.3-19.38-5.3s-13.97,1.77-19.49,5.3c-5.53,3.53-10.08,8.5-13.66,14.9-3.58,6.4-6.27,13.87-8.06,22.4-1.79,8.53-2.69,17.8-2.69,27.8s.9,19.1,2.69,27.7c1.79,8.6,4.48,16.07,8.06,22.4,3.58,6.33,8.14,11.3,13.66,14.9,5.52,3.6,12.02,5.4,19.49,5.4Z"/>
      <path class="st4" d="M769.8,446.45v-6.6h37.63v9.4h-3.36l-34.27-2.8ZM769.8,588.05v-6.6l34.27-2.8h6.5l34.27,2.8v6.6h-75.04ZM790.85,588.05c.3-11.33.45-22.77.45-34.3v-79.2c0-11.53-.15-23.1-.45-34.7h32.7c-.45,11.33-.71,22.9-.78,34.7-.08,11.8-.11,24.37-.11,37.7v5.4c0,12.13.04,24,.11,35.6.07,11.6.34,23.2.78,34.8h-32.7ZM901.73,590.65c-9.26,0-16.35-1.37-21.28-4.1-4.93-2.73-7.99-7.63-9.18-14.7l-8.06-29.8c-1.34-5.47-2.99-9.97-4.93-13.5-1.94-3.53-4.67-6.13-8.18-7.8-3.51-1.67-8.33-2.5-14.45-2.5h-28v-7h31.36c8.36,0,15.23-1.5,20.61-4.5s9.37-7,11.98-12c2.61-5,3.92-10.57,3.92-16.7,0-9.87-3.02-17.47-9.07-22.8-6.05-5.33-15.2-8-27.44-8h-31.58v-7.4h38.98c19.11,0,33.75,3.3,43.9,9.9,10.15,6.6,15.23,15.83,15.23,27.7,0,6.4-1.9,12.33-5.71,17.8-3.81,5.47-10.01,10.03-18.59,13.7-8.59,3.67-19.97,5.9-34.16,6.7v-2.2c11.95.4,21.17,1.83,27.66,4.3,6.5,2.47,11.35,6.03,14.56,10.7,3.21,4.67,5.64,10.53,7.28,17.6l10.08,39.6-15.46-6.2,34.72,2v6.6c-3.88.8-7.58,1.43-11.09,1.9-3.51.46-7.88.7-13.1.7Z"/>
      <path class="st4" d="M1020.9,591.85c-17.33,0-32.48-3.2-45.47-9.6-12.99-6.4-23.11-15.43-30.35-27.1-7.25-11.67-10.86-25.5-10.86-41.5s3.7-29.57,11.09-41.1c7.39-11.53,17.7-20.47,30.91-26.8,13.22-6.33,28.48-9.5,45.81-9.5,9.86,0,18.7.93,26.54,2.8,7.84,1.87,15.2,4.6,22.06,8.2l-.45,35h-12.54l-11.42-39.8,16.13,5.4v8c-6.27-4.4-12.13-7.53-17.58-9.4-5.45-1.87-11.69-2.8-18.71-2.8-11.05,0-20.98,2.6-29.79,7.8-8.81,5.2-15.79,13.03-20.94,23.5-5.15,10.47-7.73,23.5-7.73,39.1,0,14.53,2.46,27.07,7.39,37.6,4.93,10.54,11.68,18.63,20.27,24.3,8.59,5.67,18.26,8.5,29.01,8.5,5.67,0,11.01-.53,16.02-1.6,5-1.07,10.04-2.53,15.12-4.4l-10.97,6v-16.4c0-8.93-.08-17.63-.22-26.1-.15-8.47-.38-17.17-.67-26.1h31.81c-.15,8.4-.34,16.87-.56,25.4-.22,8.53-.34,17.67-.34,27.4v10c-8.66,4.54-17.17,7.87-25.54,10-8.37,2.13-17.7,3.2-28,3.2ZM1019.11,522.45v-6.6h70.78v6.6l-26.88,3h-12.54l-31.36-3Z"/>
      <path class="st4" d="M1089.89,588.05v-6.6l22.4-2.6h4.03l24.42,2.6v6.6h-50.85ZM1105.57,588.05l55.55-149h19.71l56.67,149h-32.26l-47.26-131.2h4.48l-.67,2.8-45.25,128.4h-10.98ZM1130.21,539.85l1.79-6.8h71.01l1.57,6.8h-74.37ZM1179.27,588.05v-6.6l30.24-2.8h11.2l31.14,2.8v6.6h-72.58Z"/>
      <path class="st4" d="M1262.37,588.05v-6.6l23.74-2.8h6.05l30.69,2.8v6.6h-60.48ZM1390.28,588.85l-100.13-130-.67-.6-7.62-10.2-18.59-1.6v-6.6h49.73l89.15,116.2-4.26,1.4-.67-59.4v-58.2h9.18v149h-16.13ZM1284.1,588.05v-142.6h8.51l2.24,90.4v52.2h-10.75ZM1367.88,446.45v-6.6h60.7v6.6l-23.52,2.8h-6.05l-31.14-2.8Z"/>
      <path class="st4" d="M1444.71,446.45v-6.6h75.04v6.6l-34.5,2.8h-6.27l-34.27-2.8ZM1444.71,588.05v-6.6l34.27-2.8h6.27l34.5,2.8v6.6h-75.04ZM1465.76,588.05c.3-11.33.48-22.77.56-34.3.07-11.53.11-23.17.11-34.9v-9.6c0-11.6-.04-23.17-.11-34.7-.08-11.53-.26-23.1-.56-34.7h33.15c-.3,11.33-.49,22.83-.56,34.5-.08,11.67-.11,23.3-.11,34.9v9.4c0,11.6.04,23.17.11,34.7.07,11.53.26,23.1.56,34.7h-33.15Z"/>
      <path class="st4" d="M1624.13,591.85c-12.4,0-23.86-1.6-34.38-4.8-10.53-3.2-19.71-8.03-27.55-14.5-7.84-6.47-13.93-14.47-18.26-24-4.33-9.53-6.5-20.7-6.5-33.5s2.2-24.13,6.61-34c4.4-9.87,10.56-18.13,18.48-24.8,7.91-6.67,17.17-11.67,27.78-15,10.6-3.33,21.88-5,33.82-5,10.15,0,18.93.93,26.32,2.8,7.39,1.87,14.67,4.67,21.84,8.4l-.45,35h-12.1l-11.65-40,16.13,4.8v6.8c-5.82-3.73-11.46-6.4-16.91-8-5.45-1.6-11.46-2.4-18.03-2.4-11.05,0-20.98,2.57-29.79,7.7-8.81,5.13-15.79,12.9-20.94,23.3s-7.73,23.53-7.73,39.4,2.58,29,7.73,39.4c5.15,10.4,12.13,18.13,20.94,23.2,8.81,5.07,18.82,7.6,30.02,7.6,6.57,0,12.69-.83,18.37-2.5,5.67-1.67,11.57-4.5,17.7-8.5v7.2l-15.68,4.6,11.42-39.4h12.32l.45,34.6c-7.17,3.73-14.78,6.6-22.85,8.6-8.06,2-17.1,3-27.1,3Z"/>
      <path class="st4" d="M1685.73,588.05v-6.6l22.4-2.6h4.03l24.42,2.6v6.6h-50.85ZM1701.41,588.05l55.55-149h19.71l56.67,149h-32.26l-47.26-131.2h4.48l-.67,2.8-45.25,128.4h-10.98ZM1726.05,539.85l1.79-6.8h71.01l1.57,6.8h-74.37ZM1775.11,588.05v-6.6l30.24-2.8h11.2l31.14,2.8v6.6h-72.58Z"/>
    </g>
  </g>
  <g class="st1">
    <g class="st1">
      <path class="st4" d="M682.94,380.87c-12.18,0-23.43-1.6-33.77-4.8-10.34-3.2-19.36-8.03-27.06-14.5-7.7-6.47-13.68-14.47-17.93-24-4.26-9.53-6.38-20.7-6.38-33.5s2.16-24.13,6.49-34c4.32-9.87,10.37-18.13,18.15-24.8,7.77-6.67,16.86-11.67,27.28-15,10.41-3.33,21.48-5,33.22-5,9.97,0,18.59.93,25.85,2.8,7.26,1.87,14.41,4.67,21.45,8.4l-.44,35h-11.88l-11.44-40,15.84,4.8v6.8c-5.72-3.73-11.26-6.4-16.61-8-5.36-1.6-11.26-2.4-17.71-2.4-10.86,0-20.61,2.57-29.26,7.7-8.66,5.13-15.51,12.9-20.57,23.3s-7.59,23.53-7.59,39.4,2.53,29,7.59,39.4,11.91,18.13,20.57,23.2c8.65,5.07,18.48,7.6,29.48,7.6,6.45,0,12.46-.83,18.04-2.5,5.57-1.67,11.36-4.5,17.38-8.5v7.2l-15.4,4.6,11.22-39.4h12.1l.44,34.6c-7.04,3.73-14.52,6.6-22.44,8.6-7.92,2-16.8,3-26.62,3Z"/>
      <path class="st4" d="M782.82,380.27c-9.24,0-16.83-2.37-22.77-7.1-5.94-4.73-8.91-11.3-8.91-19.7,0-5.73,1.39-10.77,4.18-15.1,2.78-4.33,7.44-8.2,13.97-11.6,6.52-3.4,15.29-6.5,26.29-9.3,5.86-1.47,12.43-3.07,19.69-4.8,7.26-1.73,13.82-3.2,19.69-4.4v5c-5.87,1.33-11.74,2.77-17.6,4.3-5.87,1.53-10.78,2.9-14.74,4.1-7.92,2.93-13.86,6.7-17.82,11.3s-5.94,10.23-5.94,16.9c0,6.13,1.61,10.7,4.84,13.7,3.22,3,7.55,4.5,12.98,4.5,2.34,0,4.87-.5,7.59-1.5,2.71-1,5.86-2.8,9.46-5.4,3.59-2.6,7.81-6.3,12.65-11.1l3.52,10.6h-7.7c-4.26,4.13-8.25,7.67-11.99,10.6-3.74,2.93-7.78,5.17-12.1,6.7-4.33,1.53-9.43,2.3-15.29,2.3ZM844.2,380.07c-7.48,0-13.2-1.97-17.16-5.9s-6.38-9.23-7.26-15.9v-57.4c0-7.2-.74-12.77-2.2-16.7-1.47-3.93-3.89-6.7-7.26-8.3-3.38-1.6-7.92-2.4-13.64-2.4-3.82,0-7.7.4-11.66,1.2-3.96.8-8.58,2.2-13.86,4.2l13.64-5-2.2,15.4c-.44,5.73-2.02,9.8-4.73,12.2-2.72,2.4-5.98,3.6-9.79,3.6-7.19,0-11.66-3.07-13.42-9.2,1.46-9.07,6.63-16.2,15.51-21.4,8.87-5.2,21.01-7.8,36.41-7.8s25.33,3.07,32.01,9.2c6.67,6.13,10.01,16.13,10.01,30v52.2c0,4.67.66,7.87,1.98,9.6,1.32,1.73,3.15,2.6,5.5,2.6,1.61,0,3.15-.47,4.62-1.4,1.46-.93,3.22-2.67,5.28-5.2l3.74,2.8c-2.64,4.8-6.02,8.27-10.12,10.4-4.11,2.13-9.24,3.2-15.4,3.2Z"/>
      <path class="st4" d="M894.36,377.07c.29-7.73.47-15.57.55-23.5.07-7.93.11-15.77.11-23.5v-52.2h-18.48v-6.4l28.82-2.6-10.34,5,.22-2.2c1.02-12.67,3.37-22.67,7.04-30,3.66-7.33,8.21-13.2,13.64-17.6,5.57-4.67,11.4-8,17.49-10,6.08-2,12.35-3,18.81-3s11.73,1.03,16.72,3.1c4.98,2.07,8.14,5.5,9.46,10.3-.15,3.33-1.43,6.13-3.85,8.4-2.42,2.27-5.91,3.4-10.45,3.4-3.81,0-7.26-.97-10.34-2.9-3.08-1.93-6.09-5.3-9.02-10.1l-5.5-7.8v-1.8h10.34v1.6c-3.67.53-7.01,1.67-10.01,3.4-3.01,1.73-5.39,3.8-7.15,6.2-2.35,3.6-4.18,7.7-5.5,12.3s-2.13,10-2.42,16.2c-.3,6.2-.22,13.37.22,21.5v55.2c0,7.73.07,15.57.22,23.5.14,7.93.36,15.77.66,23.5h-31.24ZM877.86,377.07v-6l24.86-2h18.48l25.08,2v6h-68.42ZM910.2,277.87v-8h44.66v8h-44.66Z"/>
      <path class="st4" d="M1025.04,380.27c-11.74,0-22.19-2.17-31.35-6.5-9.17-4.33-16.36-10.77-21.56-19.3-5.21-8.53-7.81-18.93-7.81-31.2s2.79-22.23,8.36-30.7c5.57-8.47,12.87-14.9,21.89-19.3,9.02-4.4,18.66-6.6,28.93-6.6,10.85,0,19.98,1.97,27.39,5.9,7.4,3.93,12.98,9.23,16.72,15.9,3.74,6.67,5.61,14.13,5.61,22.4,0,4.67-.44,8.73-1.32,12.2h-94.82v-7h56.1c4.69,0,7.88-1.17,9.57-3.5,1.68-2.33,2.53-6.17,2.53-11.5,0-8.8-2.06-15.6-6.16-20.4-4.11-4.8-9.68-7.2-16.72-7.2-4.84,0-9.31,1.67-13.42,5-4.11,3.33-7.37,8.47-9.79,15.4-2.42,6.93-3.63,15.8-3.63,26.6s1.69,19.9,5.06,26.9c3.37,7,8.03,12.1,13.97,15.3,5.94,3.2,12.72,4.8,20.35,4.8s14.33-1.33,19.69-4c5.35-2.67,10.01-6.33,13.97-11l3.96,2.6c-4.55,8-10.86,14.2-18.92,18.6-8.07,4.4-17.6,6.6-28.6,6.6ZM1008.31,248.27c2.93-4.13,5.9-8.5,8.91-13.1,3.01-4.6,6.63-10.3,10.89-17.1,2.64-4.13,5.21-7.17,7.7-9.1,2.49-1.93,5.28-2.9,8.36-2.9,2.64,0,5.09.9,7.37,2.7,2.27,1.8,3.41,4.17,3.41,7.1,0,2.67-1.07,5.3-3.19,7.9-2.13,2.6-5.47,5.3-10.01,8.1-6.6,4.13-12.1,7.7-16.5,10.7-4.4,3-8.51,5.97-12.32,8.9l-4.62-3.2Z"/>
    </g>
  </g>
  <path class="st4" d="M3081.53,175.68c3.5.27,7.71.71,11.24,1.12,2.74.23,6.13.8,8.99,1.12,2.1.31,4.6.75,6.74,1.12,1.71.3,3.83.77,5.62,1.12s3.83.74,5.62,1.12c1.34.29,3.03.79,4.5,1.12s3.06.76,4.5,1.12,3.06.74,4.5,1.12c.56.15,2.09.76,3.37,1.12.88.25,2.25.78,3.37,1.12,1,.3,2.28.77,3.37,1.12s2.28.76,3.37,1.12,2.31.75,3.37,1.12c1.12.39,2.33.74,3.37,1.12.12.04.91.61,2.25,1.12,64.85,28.05,112.94,75.34,142.76,139.39,1.04,2.52,2.47,5.47,3.37,7.87.39,1.04.71,2.22,1.12,3.37.38,1.06.73,2.25,1.12,3.37s.77,2.29,1.12,3.37.8,2.34,1.12,3.37c.34,1.1.84,2.4,1.12,3.37.37,1.26.92,2.66,1.12,3.37.37,1.29.97,2.79,1.12,3.37.38,1.43.76,3.05,1.12,4.5s.8,3.1,1.12,4.5.85,3.18,1.12,4.5c.38,1.79.79,3.85,1.12,5.62.4,2.11.78,4.61,1.12,6.74.31,2.15.89,4.75,1.12,6.74.41,3.17.84,6.96,1.12,10.12.46,6.03,1,13.15,1.12,19.11.06,4.09.1,8.27,0,12.37-.14,5.25-.71,11.53-1.12,16.86-.29,3.16-.71,6.95-1.12,10.12-.23,1.98-.81,4.61-1.12,6.74-.34,2.14-.73,4.61-1.12,6.74-.32,1.75-.76,3.84-1.12,5.62-.27,1.31-.8,3.03-1.12,4.5-.3,1.36-.78,3.05-1.12,4.5s-.75,3.08-1.12,4.5c-.39,1.49-.73,3.08-1.12,4.5-.22.8-.78,2.24-1.12,3.37-.31,1-.77,2.29-1.12,3.37s-.76,2.29-1.12,3.37-.75,2.32-1.12,3.37c-.41,1.14-.74,2.35-1.12,3.37-.04.12-.64,1.03-1.12,2.25-1.38,3.52-2.99,7.84-4.5,11.24-28.39,61.86-78.42,108.9-140.51,136.02-1.22.49-2.13,1.08-2.25,1.12-1.03.39-2.22.71-3.37,1.12-1.05.38-2.26.74-3.37,1.12-1.31.5-2.13,1.08-2.25,1.12-1.03.39-2.24.72-3.37,1.12-1.05.37-2.29.77-3.37,1.12-1.33.44-2.92.65-4.5,1.12-1.29.36-2.86.99-3.37,1.12-1.42.37-3.09.79-4.5,1.12s-3.15.83-4.5,1.12c-1.48.32-3.19.86-4.5,1.12-1.78.36-3.88.81-5.62,1.12s-3.96.86-5.62,1.12c-2.2.35-4.63.82-6.74,1.12-2.86.32-6.26.9-8.99,1.12-4.48.52-10.12.9-14.61,1.12-8.49.3-17.36.28-25.85,0-4.48-.21-10.14-.62-14.61-1.12-3.14-.25-6.9-.76-10.12-1.12-2.1-.3-4.56-.78-6.74-1.12-1.67-.26-3.8-.8-5.62-1.12s-3.83-.77-5.62-1.12c-1.29-.26-3.02-.81-4.5-1.12-1.32-.28-3.07-.78-4.5-1.12s-3.07-.75-4.5-1.12c-.52-.13-2.08-.76-3.37-1.12-1.55-.46-3.17-.69-4.5-1.12-1.07-.35-2.32-.75-3.37-1.12-1.13-.4-2.33-.74-3.37-1.12-1.17-.44-2.35-.73-3.37-1.12-.12-.05-1.08-.65-2.25-1.12-1.15-.42-2.35-.73-3.37-1.12-1.72-.66-3.9-1.54-5.62-2.25-65.87-29.73-115.98-82.54-142.76-149.51-.37-1.07-.76-2.28-1.12-3.37s-.78-2.31-1.12-3.37-.82-2.36-1.12-3.37c-.34-1.12-.87-2.48-1.12-3.37-.36-1.27-.97-2.79-1.12-3.37-.38-1.43-.76-3.04-1.12-4.5s-.8-3.1-1.12-4.5-.84-3.16-1.12-4.5c-.32-1.48-.87-3.21-1.12-4.5-.36-1.8-.82-3.89-1.12-5.62-.38-2.14-.8-4.63-1.12-6.74-.34-2.84-.9-6.27-1.12-8.99-.42-3.55-.85-7.72-1.12-11.24-.61-12.05-.65-27.31,0-39.34.26-3.14.75-6.9,1.12-10.12.22-2.71.78-6.17,1.12-8.99.29-2.08.77-4.58,1.12-6.74.27-1.68.79-3.82,1.12-5.62s.75-3.86,1.12-5.62c.29-1.33.79-3.04,1.12-4.5s.76-3.08,1.12-4.5c.13-.49.77-2.1,1.12-3.37.42-1.52.71-3.09,1.12-4.5.29-.97.78-2.28,1.12-3.37.32-1.03.77-2.3,1.12-3.37s.75-2.32,1.12-3.37c.4-1.13.74-2.34,1.12-3.37.04-.12.62-.94,1.12-2.25,27.78-67.99,80.09-119.47,147.26-148.38,1.35-.52,2.13-1.08,2.25-1.12,1.04-.38,2.26-.74,3.37-1.12s2.3-.77,3.37-1.12,2.32-.79,3.37-1.12,2.37-.82,3.37-1.12c1.15-.35,2.56-.89,3.37-1.12,1.29-.36,2.82-.98,3.37-1.12,1.43-.38,3.06-.77,4.5-1.12s3.12-.81,4.5-1.12c1.47-.33,3.17-.84,4.5-1.12,1.78-.38,3.86-.79,5.62-1.12s3.96-.86,5.62-1.12c2.13-.34,4.72-.86,6.74-1.12,2.52-.33,5.46-.87,7.87-1.12,3.94-.38,8.49-.88,12.37-1.12,11.28-.7,25.73-.5,37.1,0h0Z"/>
  <path class="st0" d="M3072.54,194.79c4.95.23,10.77.66,15.74,1.12,2.74.26,6.19.75,8.99,1.12,2.03.26,4.59.8,6.74,1.12,2.15.36,4.64.71,6.74,1.12,1.28.25,3.04.81,4.5,1.12,1.34.29,3.05.78,4.5,1.12s3.07.76,4.5,1.12,3.1.73,4.5,1.12c.69.19,2.12.76,3.37,1.12.97.29,2.28.78,3.37,1.12,1.02.32,2.3.77,3.37,1.12s2.31.75,3.37,1.12c1.61.56,3.79,1.56,5.62,2.25,60.48,26.2,109.58,73.59,134.89,134.89.34.83.58,1.97,1.12,3.37.4,1.03.68,2.18,1.12,3.37.39,1.03.72,2.23,1.12,3.37.37,1.04.77,2.3,1.12,3.37s.8,2.34,1.12,3.37c.35,1.11.83,2.38,1.12,3.37.36,1.22.94,2.69,1.12,3.37.39,1.4.76,3.05,1.12,4.5s.82,3.14,1.12,4.5c.33,1.45.86,3.2,1.12,4.5.43,2.09.75,4.58,1.12,6.74.34,2.16.84,4.68,1.12,6.74.34,2.47.89,5.51,1.12,7.87.43,4.24.89,9.29,1.12,13.49.39,8.18.29,17.64,0,25.85-.23,4.18-.68,9.28-1.12,13.49-.25,2.75-.77,6.15-1.12,8.99-.3,2.08-.75,4.62-1.12,6.74-.3,1.71-.77,3.84-1.12,5.62-.26,1.28-.81,3.03-1.12,4.5-.37,1.81-.71,3.88-1.12,5.62-.07.29-.77,1.99-1.12,3.37-.41,1.5-.71,3.13-1.12,4.5-.3.99-.78,2.28-1.12,3.37s-.76,2.3-1.12,3.37-.75,2.31-1.12,3.37c-.4,1.14-.74,2.35-1.12,3.37-.47,1.25-.74,2.4-1.12,3.37-24.79,62.41-75.71,113.76-138.26,138.26-2.75.42-2.12,1.13-2.25,1.12-1.11-.07-2.26.04-3.37,0,.92-10.14-.74-20.31-1.12-30.35.24-4.65-.17-9.38,0-14.05,48.86-23.94,84.25-59.21,103.42-110.72.56-1.41.72-2.28,1.12-3.37.45-1.21.72-2.23,1.12-3.37s.74-2.18,1.12-3.37c.49-1.65.71-2.95,1.12-4.5.16-.6.74-1.8,1.12-3.37.37-1.5.77-2.93,1.12-4.5.41-1.94.76-3.66,1.12-5.62s.84-3.58,1.12-5.62c.34-2.22.82-4.41,1.12-6.74.38-3.8.9-7.33,1.12-11.24.84-10.6.84-18.62,0-29.23-.23-3.91-.75-7.44-1.12-11.24-.31-2.35-.77-4.5-1.12-6.74-.28-2.02-.8-3.78-1.12-5.62-.36-2.02-.68-3.63-1.12-5.62-.35-1.59-.76-3-1.12-4.5-.39-1.49-.89-2.57-1.12-3.37-.43-1.48-.5-2.6-1.12-4.5-.35-1.22-.78-2.28-1.12-3.37-.38-1.19-.73-2.22-1.12-3.37-.78-2.07-1.4-3.6-2.25-5.62-19.77-52.69-57.72-90.06-110.16-110.16-.12-.04-.76-.59-2.25-1.12-1.42-.57-2.3-.72-3.37-1.12-1.24-.46-2.21-.72-3.37-1.12s-2.15-.75-3.37-1.12c-1.63-.47-2.92-.72-4.5-1.12-.46-.12-1.82-.75-3.37-1.12-1.55-.4-2.87-.77-4.5-1.12-1.94-.42-3.65-.76-5.62-1.12-2.31-.4-4.36-.8-6.74-1.12-2.24-.34-4.36-.84-6.74-1.12-3.84-.4-7.29-.92-11.24-1.12-9.49-.63-16.35-.69-25.85,0-3.94.2-7.42.75-11.24,1.12-2.77.33-5.14.69-7.87,1.12-2.02.27-3.81.82-5.62,1.12-2.02.34-3.66.71-5.62,1.12-1.58.35-3.01.76-4.5,1.12-1.6.39-2.88.67-4.5,1.12-1.45.39-2.59.9-3.37,1.12-1.22.35-2.29.78-3.37,1.12-1.18.37-2.24.74-3.37,1.12s-2.16.68-3.37,1.12c-2.04.79-3.59,1.38-5.62,2.25-52.38,21.08-89.93,59.35-109.04,112.41-.56,1.41-.72,2.29-1.12,3.37-.45,1.23-.73,2.19-1.12,3.37s-.75,2.17-1.12,3.37c-.33,1.07-.77,2.16-1.12,3.37-.4,1.53-.75,2.93-1.12,4.5-.35,1.47-.79,2.91-1.12,4.5-.3,1.4-.82,2.89-1.12,4.5-.42,2.33-.8,4.35-1.12,6.74-.43,2.73-.81,5.08-1.12,7.87-.43,4.25-.93,8.02-1.12,12.37-.43,7.92-.43,13.44,0,21.36.19,4.34.7,8.12,1.12,12.37.31,2.8.69,5.13,1.12,7.87.32,2.39.73,4.44,1.12,6.74.36,1.97.72,3.69,1.12,5.62.35,1.62.74,2.97,1.12,4.5.37,1.6,1.01,2.93,1.12,3.37.4,1.58.65,2.87,1.12,4.5.38,1.22.72,2.2,1.12,3.37s.66,2.14,1.12,3.37c.4,1.07.56,1.95,1.12,3.37.53,1.49,1.08,2.13,1.12,2.25,18.52,48.3,54.46,87.58,102.29,108.48-.28,10.28.39,20.65,0,30.91-.59,4.69-1.88,9.19-1.12,14.05-.4.9-2.3.59-3.37.56-2.16-.06-34.5-16.56-38.78-19.11-43.88-26.12-81.5-70.69-100.61-118.03-.37-.91-.62-2.06-1.12-3.37-.4-1.03-.7-2.2-1.12-3.37-.38-1.05-.73-2.25-1.12-3.37-.37-1.06-.77-2.31-1.12-3.37s-.82-2.37-1.12-3.37c-.34-1.11-.85-2.42-1.12-3.37-.4-1.4-.73-3.01-1.12-4.5s-.79-3.09-1.12-4.5-.84-3.18-1.12-4.5c-.31-1.46-.88-3.24-1.12-4.5-.41-2.11-.78-4.6-1.12-6.74-.27-2.13-.95-4.87-1.12-6.74-.41-3.17-.84-6.97-1.12-10.12-.78-13.35-.83-31.63,0-44.96.26-3.12.73-6.95,1.12-10.12.19-1.9.84-4.62,1.12-6.74.33-2.11.72-4.65,1.12-6.74.18-.95.79-2.89,1.12-4.5.36-1.77.71-3.94,1.12-5.62.09-.37.77-2,1.12-3.37.37-1.46.73-3.09,1.12-4.5.22-.79.78-2.27,1.12-3.37.31-1.01.77-2.3,1.12-3.37s.75-2.31,1.12-3.37.74-2.35,1.12-3.37c1.27-3.58,3.14-9.06,4.5-12.37,25.75-58.03,72.67-103.44,130.4-129.27.66-.29,1.74-.42,3.37-1.12,1.41-.53,2.13-1.08,2.25-1.12,1.06-.38,2.26-.74,3.37-1.12s2.31-.78,3.37-1.12,2.37-.82,3.37-1.12c1.11-.34,2.4-.84,3.37-1.12,1.25-.36,2.75-.95,3.37-1.12,1.42-.39,3.05-.76,4.5-1.12s3.1-.8,4.5-1.12,3.16-.84,4.5-1.12c1.48-.32,3.2-.86,4.5-1.12,2.12-.43,4.55-.74,6.74-1.12,2.15-.3,4.77-.9,6.74-1.12,2.81-.43,6.16-.8,8.99-1.12,4.57-.39,10.14-.98,14.61-1.12,6.66-.21,13.58-.21,20.23,0v-.02Z"/>
  <path class="st0" d="M3081.53,259.99c2.28.2,5.41.81,7.87,1.12,1.96.24,4.69.77,6.74,1.12.74.13,2.99.81,4.5,1.12,1.28.27,3.12.78,4.5,1.12s3.14.74,4.5,1.12c.94.27,2.31.79,3.37,1.12s2.34.76,3.37,1.12c1.11.39,2.36.74,3.37,1.12,1.24.47,2.4.74,3.37,1.12,44.23,17.5,79.74,54.74,98.92,97.8.29.65.46,1.79,1.12,3.37.55,1.55,1.08,2.13,1.12,2.25.36,1.07.81,2.35,1.12,3.37.34,1.09.84,2.41,1.12,3.37.36,1.23.98,2.81,1.12,3.37.37,1.39.81,3.13,1.12,4.5s.86,3.21,1.12,4.5c.36,1.76.83,3.92,1.12,5.62s.89,4.01,1.12,5.62c.41,2.79.83,6.21,1.12,8.99.66,10.38.77,25.65,0,35.97-.2,2.27-.8,5.44-1.12,7.87-.21,1.93-.82,4.63-1.12,6.74-.23,1.55-.79,3.94-1.12,5.62-.24,1.23-.79,3.14-1.12,4.5-.09.37-.78,2.16-1.12,3.37-.4,1.48-.72,3.14-1.12,4.5-.3.99-.78,2.28-1.12,3.37-.33,1.03-.76,2.35-1.12,3.37-.04.12-.6.87-1.12,2.25-16.23,40.2-46.25,73.48-84.87,93.3-1.85-.4-2.48-15.95-2.81-19.11-.28-7.14-.79-14.28-1.12-21.36-.46-6.86-.95-14.54-1.12-21.36-.05-5.37-.97-25.34,1.12-28.66,1.01-1.61,11.26-5.09,14.05-7.31,14.27-11.32,20.73-22.23,26.42-39.34.47-1.27.73-2.11,1.12-3.37.29-.94.72-1.75,1.12-3.37.47-2.04.77-3.55,1.12-5.62.35-2.29.91-4.24,1.12-6.74,1.22-10.22,1.04-17.91,0-28.1-.21-2.44-.84-4.56-1.12-6.74-.33-2.06-.7-3.64-1.12-5.62-.37-1.72-.63-2.81-1.12-4.5-.34-1.29-.79-2.28-1.12-3.37-.38-1.23-.7-2.17-1.12-3.37-.5-1.27-.96-1.88-1.12-2.25-7.4-19.46-17.95-36.52-39.34-42.72-1.73-.49-2.58-.85-4.5-1.12-5.85-1.02-7.47-1.63-13.49,0-1.38.37-2.09.66-3.37,1.12-20.87,4.71-33.79,26.14-40.47,44.96-.54,1.36-.71,2.22-1.12,3.37-.44,1.22-.74,2.14-1.12,3.37-.4,1.57-.8,2.8-1.12,4.5-.52,2.1-.77,3.51-1.12,5.62-.28,2.18-.91,4.32-1.12,6.74-1.04,10.2-1.22,17.88,0,28.1.21,2.48.79,4.49,1.12,6.74.29,1.69.8,3.04,1.12,4.5.37,1.67.66,2.85,1.12,4.5.39,1.28.66,2.12,1.12,3.37.39,1.05.4,1.7,1.12,3.37,6.78,17.83,13.53,26.67,28.66,38.22,1.95,1.49,9.17,3.05,9.55,3.37.57.47,3.24,5.09,3.37,5.62.7,2.73-.18,8.92,0,12.37-.23,8.11-.83,16.54-1.12,24.73-.17,7.56-.64,16.01-1.12,23.61-.43,8.59-.65,17.29-1.12,25.85-.4,2.71-1.24,12.41-2.25,13.49-2.2-.92-3.65.83-4.5,1.12-1.1.38-3.47.53-5.62,1.12-1.62.45-4.94.86-6.74,1.12-2.69.42-6.32.88-8.99,1.12-10.3.78-26.81.8-37.1,0-2.29-.22-5.48-.77-7.87-1.12-1.84-.26-5.01-.69-6.74-1.12-1.89-.47-4.02-.64-5.62-1.12-1.26-.38-4.3-1.01-4.5-1.12-.54-.32-3.17-2.38-3.37-2.81.87-2.8-.73-5.34-1.12-7.31-.62-8.5-.63-17.28-1.12-25.85-.52-8.91-.7-18.04-1.12-26.98-.36-8.09-.97-16.72-1.12-24.73-.27-8.88-1-18.21-1.12-26.98.19-2.39-.48-5.88,0-7.87,2.06-8.57,18.07-10.86,23.61-26.98.38-1.1.72-1.55,1.12-3.37.67-3.02.86-4.83,1.12-7.87.18-2.29-.08-3.83,0-5.62.44-7.41-.17-15.04,0-22.48.02-2.66,0-5.25,0-7.87v-2.25c0-2.58-.01-5.31,0-7.87.21-18.6.65-37.63,0-56.21v-2.25c-.1-2.22.19-4.54,0-6.74-.02-.11.53.55,0-2.25-.64-4.56,1.4-3.34-2.25-5.62-3.39-2.12-8.81-1.47-12.37,0s-1.36.49-2.25,3.37c-4.45,14.41,1.65,92.19-1.12,96.11-.54.77-8.67.88-8.99.56-3.48-3.48,2.67-86.76,0-98.36-.89-1.87-2.56-1.31-3.37-1.69-3.88-1.8-7.35-1.72-11.24,0-.79.35-2.74-.61-3.37.56-.13,1.66.19,3.42,0,5.06-4.59,13.99,1.7,89.88-1.12,93.86-.65.92-7.21.92-7.87,0-2.26-3.19-.02-66.54-1.12-78.13-.18-6.11,1.74-18.86-2.25-21.36-3.39-2.12-8.81-1.47-12.37,0s-1.36.49-2.25,3.37c-3.69,11.94-2.17,100.25,0,115.78.26,2.72.43,4.06,1.12,6.74.42,1.61.47,1.83,1.12,3.37,5.84,16.75,23.14,21.61,24.73,28.1.85,3.45-.2,11.43,0,15.74-.15,8.41-.83,17.34-1.12,25.85-.18,7.98-.68,16.7-1.12,24.73-.38,8.62-.85,17.19-1.12,25.85-.51,5.58-1.94,11.13-1.12,16.86h-1.12c-38.19-20.71-65.73-51.39-83.18-91.05-.52-1.39-1.08-2.13-1.12-2.25-.37-1.06-.76-2.29-1.12-3.37s-.81-2.36-1.12-3.37c-.34-1.09-.88-2.52-1.12-3.37-.35-1.26-1.01-2.92-1.12-3.37-.35-1.4-.83-3.17-1.12-4.5-.32-1.44-.88-3.24-1.12-4.5-.34-1.76-.85-3.96-1.12-5.62-.39-2.4-.85-5.5-1.12-7.87-.33-2.75-.94-6.39-1.12-8.99-.61-8.35-.6-20.88,0-29.23.21-3.02.74-7.02,1.12-10.12.23-1.95.78-4.68,1.12-6.74.27-1.65.77-3.88,1.12-5.62.25-1.25.79-3.12,1.12-4.5s.74-3.15,1.12-4.5c.24-.85.79-2.3,1.12-3.37.32-1.01.77-2.32,1.12-3.37s.75-2.35,1.12-3.37c.43-1.16.73-2.35,1.12-3.37.55-1.43.82-2.64,1.12-3.37,17.99-42.74,54.81-77.67,96.67-96.67,1.76-.69,3.97-1.67,5.62-2.25,1.05-.37,2.3-.77,3.37-1.12s2.37-.82,3.37-1.12c1.11-.34,2.58-.9,3.37-1.12,1.38-.38,3.08-.77,4.5-1.12s3.17-.83,4.5-1.12c1.45-.32,3.23-.88,4.5-1.12,2.05-.4,4.69-.81,6.74-1.12,2.5-.25,5.63-.97,7.87-1.12,10.75-.75,27.52-.84,38.22,0l-.04.05Z"/>
  <path class="st0" d="M3025.32,618.58c1.89.19,4.63.84,6.74,1.12,2.3.17,5.3.9,7.87,1.12,4.13.33,8.1.94,12.37,1.12,7.9.43,13.48.39,21.36,0,4.65-.21,8.94-.74,13.49-1.12,2.59-.23,5.54-.94,7.87-1.12,1.82-.26,4.81-1.04,5.62-1.12,1.55.08,5.98-.52,6.74.56.12,5.43-.17,10.89,0,16.3-.39,8.34-2.03,16.81-1.12,25.29-.26.72-3.77,2.56-4.5,2.81-1.71.6-5.6.69-7.87,1.12-2.9.51-7.13.85-10.12,1.12-12.23.86-30.48.83-42.72,0-3.47-.31-7.86-.6-11.24-1.12-1.84-.38-6.11-.88-6.74-1.12-1.24-.48-2.67-1.47-4.5-1.69.74-11.51-.5-22.87-1.12-34.29.18-2.78-.13-5.63,0-8.43l2.25-1.69c.59,1.96,3.95,1.04,5.62,1.12v.02Z"/>
  <rect class="st2" x="2054.3" y="955.89" width="1854.81" height="581.09"/>
  <path class="st4" d="M2372.96,992.66c3.5.27,7.71.71,11.24,1.12,2.74.23,6.13.8,8.99,1.12,2.1.31,4.6.75,6.74,1.12,1.71.3,3.83.77,5.62,1.12s3.83.74,5.62,1.12c1.34.29,3.03.79,4.5,1.12s3.06.76,4.5,1.12,3.06.74,4.5,1.12c.56.15,2.09.76,3.37,1.12.88.25,2.25.78,3.37,1.12,1,.3,2.28.77,3.37,1.12s2.28.76,3.37,1.12,2.31.75,3.37,1.12c1.12.39,2.33.74,3.37,1.12.12.04.91.61,2.25,1.12,64.85,28.05,112.94,75.34,142.76,139.39,1.04,2.52,2.47,5.47,3.37,7.87.39,1.04.71,2.22,1.12,3.37.38,1.06.73,2.25,1.12,3.37s.77,2.29,1.12,3.37.8,2.34,1.12,3.37c.34,1.1.84,2.4,1.12,3.37.37,1.26.92,2.66,1.12,3.37.37,1.29.97,2.79,1.12,3.37.38,1.43.76,3.05,1.12,4.5s.8,3.1,1.12,4.5.85,3.18,1.12,4.5c.38,1.79.79,3.85,1.12,5.62.4,2.11.78,4.61,1.12,6.74.31,2.15.89,4.75,1.12,6.74.41,3.17.84,6.96,1.12,10.12.46,6.03,1,13.15,1.12,19.11.06,4.09.1,8.27,0,12.37-.14,5.25-.71,11.53-1.12,16.86-.29,3.16-.71,6.95-1.12,10.12-.23,1.98-.81,4.61-1.12,6.74-.34,2.14-.73,4.61-1.12,6.74-.32,1.75-.76,3.84-1.12,5.62-.27,1.31-.8,3.03-1.12,4.5-.3,1.36-.78,3.05-1.12,4.5s-.75,3.08-1.12,4.5c-.39,1.49-.73,3.08-1.12,4.5-.22.8-.78,2.24-1.12,3.37-.31,1-.77,2.29-1.12,3.37s-.76,2.29-1.12,3.37-.75,2.32-1.12,3.37c-.41,1.14-.74,2.35-1.12,3.37-.04.12-.64,1.03-1.12,2.25-1.38,3.52-2.99,7.84-4.5,11.24-28.39,61.86-78.42,108.9-140.51,136.02-1.22.49-2.13,1.08-2.25,1.12-1.03.39-2.22.71-3.37,1.12-1.05.38-2.26.74-3.37,1.12-1.31.5-2.13,1.08-2.25,1.12-1.03.39-2.24.72-3.37,1.12-1.05.37-2.29.77-3.37,1.12-1.33.44-2.92.65-4.5,1.12-1.29.36-2.86.99-3.37,1.12-1.42.37-3.09.79-4.5,1.12s-3.15.83-4.5,1.12c-1.48.32-3.19.86-4.5,1.12-1.78.36-3.88.81-5.62,1.12s-3.96.86-5.62,1.12c-2.2.35-4.63.82-6.74,1.12-2.86.32-6.26.9-8.99,1.12-4.48.52-10.12.9-14.61,1.12-8.49.3-17.36.28-25.85,0-4.48-.21-10.14-.62-14.61-1.12-3.14-.25-6.9-.76-10.12-1.12-2.1-.3-4.56-.78-6.74-1.12-1.67-.26-3.8-.8-5.62-1.12s-3.83-.77-5.62-1.12c-1.29-.26-3.02-.81-4.5-1.12-1.32-.28-3.07-.78-4.5-1.12s-3.07-.75-4.5-1.12c-.52-.13-2.08-.76-3.37-1.12-1.55-.46-3.17-.69-4.5-1.12-1.07-.35-2.32-.75-3.37-1.12-1.13-.4-2.33-.74-3.37-1.12-1.17-.44-2.35-.73-3.37-1.12-.12-.05-1.08-.65-2.25-1.12-1.15-.42-2.35-.73-3.37-1.12-1.72-.66-3.9-1.54-5.62-2.25-65.87-29.73-115.98-82.54-142.76-149.51-.37-1.07-.76-2.28-1.12-3.37s-.78-2.31-1.12-3.37-.82-2.36-1.12-3.37c-.34-1.12-.87-2.48-1.12-3.37-.36-1.27-.97-2.79-1.12-3.37-.38-1.43-.76-3.04-1.12-4.5s-.8-3.1-1.12-4.5-.84-3.16-1.12-4.5c-.32-1.48-.87-3.21-1.12-4.5-.36-1.8-.82-3.89-1.12-5.62-.38-2.14-.8-4.63-1.12-6.74-.34-2.84-.9-6.27-1.12-8.99-.42-3.55-.85-7.72-1.12-11.24-.61-12.05-.65-27.31,0-39.34.26-3.14.75-6.9,1.12-10.12.22-2.71.78-6.17,1.12-8.99.29-2.08.77-4.58,1.12-6.74.27-1.68.79-3.82,1.12-5.62s.75-3.86,1.12-5.62c.29-1.33.79-3.04,1.12-4.5s.76-3.08,1.12-4.5c.13-.49.77-2.1,1.12-3.37.42-1.52.71-3.09,1.12-4.5.29-.97.78-2.28,1.12-3.37.32-1.03.77-2.3,1.12-3.37s.75-2.32,1.12-3.37c.4-1.13.74-2.34,1.12-3.37.04-.12.62-.94,1.12-2.25,27.78-67.99,80.09-119.47,147.26-148.38,1.35-.52,2.13-1.08,2.25-1.12,1.04-.38,2.26-.74,3.37-1.12s2.3-.77,3.37-1.12,2.32-.79,3.37-1.12,2.37-.82,3.37-1.12c1.15-.35,2.56-.89,3.37-1.12,1.29-.36,2.82-.98,3.37-1.12,1.43-.38,3.06-.77,4.5-1.12s3.12-.81,4.5-1.12c1.47-.33,3.17-.84,4.5-1.12,1.78-.38,3.86-.79,5.62-1.12s3.96-.86,5.62-1.12c2.13-.34,4.72-.86,6.74-1.12,2.52-.33,5.46-.87,7.87-1.12,3.94-.38,8.49-.88,12.37-1.12,11.28-.7,25.73-.5,37.1,0h0Z"/>
  <path class="st0" d="M2363.97,1011.77c4.95.23,10.77.66,15.74,1.12,2.74.26,6.19.75,8.99,1.12,2.03.26,4.59.8,6.74,1.12,2.15.36,4.64.71,6.74,1.12,1.28.25,3.04.81,4.5,1.12,1.34.29,3.05.78,4.5,1.12s3.07.76,4.5,1.12,3.1.73,4.5,1.12c.69.19,2.12.76,3.37,1.12.97.29,2.28.78,3.37,1.12,1.02.32,2.3.77,3.37,1.12s2.31.75,3.37,1.12c1.61.56,3.79,1.56,5.62,2.25,60.48,26.2,109.58,73.59,134.89,134.89.34.83.58,1.97,1.12,3.37.4,1.03.68,2.18,1.12,3.37.39,1.03.72,2.23,1.12,3.37.37,1.04.77,2.3,1.12,3.37s.8,2.34,1.12,3.37c.35,1.11.83,2.38,1.12,3.37.36,1.22.94,2.69,1.12,3.37.39,1.4.76,3.05,1.12,4.5s.82,3.14,1.12,4.5c.33,1.45.86,3.2,1.12,4.5.43,2.09.75,4.58,1.12,6.74.34,2.16.84,4.68,1.12,6.74.34,2.47.89,5.51,1.12,7.87.43,4.24.89,9.29,1.12,13.49.39,8.18.29,17.64,0,25.85-.23,4.18-.68,9.28-1.12,13.49-.25,2.75-.77,6.15-1.12,8.99-.3,2.08-.75,4.62-1.12,6.74-.3,1.71-.77,3.84-1.12,5.62-.26,1.28-.81,3.03-1.12,4.5-.37,1.81-.71,3.88-1.12,5.62-.07.29-.77,1.99-1.12,3.37-.41,1.5-.71,3.13-1.12,4.5-.3.99-.78,2.28-1.12,3.37s-.76,2.3-1.12,3.37-.75,2.31-1.12,3.37c-.4,1.14-.74,2.35-1.12,3.37-.47,1.25-.74,2.4-1.12,3.37-24.79,62.41-75.71,113.76-138.26,138.26-2.75.42-2.12,1.13-2.25,1.12-1.11-.07-2.26.04-3.37,0,.92-10.14-.74-20.31-1.12-30.35.24-4.65-.17-9.38,0-14.05,48.86-23.94,84.25-59.21,103.42-110.72.56-1.41.72-2.28,1.12-3.37.45-1.21.72-2.23,1.12-3.37s.74-2.18,1.12-3.37c.49-1.65.71-2.95,1.12-4.5.16-.6.74-1.8,1.12-3.37.37-1.5.77-2.93,1.12-4.5.41-1.94.76-3.66,1.12-5.62s.84-3.58,1.12-5.62c.34-2.22.82-4.41,1.12-6.74.38-3.8.9-7.33,1.12-11.24.84-10.6.84-18.62,0-29.23-.23-3.91-.75-7.44-1.12-11.24-.31-2.35-.77-4.5-1.12-6.74-.28-2.02-.8-3.78-1.12-5.62-.36-2.02-.68-3.63-1.12-5.62-.35-1.59-.76-3-1.12-4.5-.39-1.49-.89-2.57-1.12-3.37-.43-1.48-.5-2.6-1.12-4.5-.35-1.22-.78-2.28-1.12-3.37-.38-1.19-.73-2.22-1.12-3.37-.78-2.07-1.4-3.6-2.25-5.62-19.77-52.69-57.72-90.06-110.16-110.16-.12-.04-.76-.59-2.25-1.12-1.42-.57-2.3-.72-3.37-1.12-1.24-.46-2.21-.72-3.37-1.12s-2.15-.75-3.37-1.12c-1.63-.47-2.92-.72-4.5-1.12-.46-.12-1.82-.75-3.37-1.12-1.55-.4-2.87-.77-4.5-1.12-1.94-.42-3.65-.76-5.62-1.12-2.31-.4-4.36-.8-6.74-1.12-2.24-.34-4.36-.84-6.74-1.12-3.84-.4-7.29-.92-11.24-1.12-9.49-.63-16.35-.69-25.85,0-3.94.2-7.42.75-11.24,1.12-2.77.33-5.14.69-7.87,1.12-2.02.27-3.81.82-5.62,1.12-2.02.34-3.66.71-5.62,1.12-1.58.35-3.01.76-4.5,1.12-1.6.39-2.88.67-4.5,1.12-1.45.39-2.59.9-3.37,1.12-1.22.35-2.29.78-3.37,1.12-1.18.37-2.24.74-3.37,1.12s-2.16.68-3.37,1.12c-2.04.79-3.59,1.38-5.62,2.25-52.38,21.08-89.93,59.35-109.04,112.41-.56,1.41-.72,2.29-1.12,3.37-.45,1.23-.73,2.19-1.12,3.37s-.75,2.17-1.12,3.37c-.33,1.07-.77,2.16-1.12,3.37-.4,1.53-.75,2.93-1.12,4.5-.35,1.47-.79,2.91-1.12,4.5-.3,1.4-.82,2.89-1.12,4.5-.42,2.33-.8,4.35-1.12,6.74-.43,2.73-.81,5.08-1.12,7.87-.43,4.25-.93,8.02-1.12,12.37-.43,7.92-.43,13.44,0,21.36.19,4.34.7,8.12,1.12,12.37.31,2.8.69,5.13,1.12,7.87.32,2.39.73,4.44,1.12,6.74.36,1.97.72,3.69,1.12,5.62.35,1.62.74,2.97,1.12,4.5.37,1.6,1.01,2.93,1.12,3.37.4,1.58.65,2.87,1.12,4.5.38,1.22.72,2.2,1.12,3.37s.66,2.14,1.12,3.37c.4,1.07.56,1.95,1.12,3.37.53,1.49,1.08,2.13,1.12,2.25,18.52,48.3,54.46,87.58,102.29,108.48-.28,10.28.39,20.65,0,30.91-.59,4.69-1.88,9.19-1.12,14.05-.4.9-2.3.59-3.37.56-2.16-.06-34.5-16.56-38.78-19.11-43.88-26.12-81.5-70.69-100.61-118.03-.37-.91-.62-2.06-1.12-3.37-.4-1.03-.7-2.2-1.12-3.37-.38-1.05-.73-2.25-1.12-3.37-.37-1.06-.77-2.31-1.12-3.37s-.82-2.37-1.12-3.37c-.34-1.11-.85-2.42-1.12-3.37-.4-1.4-.73-3.01-1.12-4.5s-.79-3.09-1.12-4.5-.84-3.18-1.12-4.5c-.31-1.46-.88-3.24-1.12-4.5-.41-2.11-.78-4.6-1.12-6.74-.27-2.13-.95-4.87-1.12-6.74-.41-3.17-.84-6.97-1.12-10.12-.78-13.35-.83-31.63,0-44.96.26-3.12.73-6.95,1.12-10.12.19-1.9.84-4.62,1.12-6.74.33-2.11.72-4.65,1.12-6.74.18-.95.79-2.89,1.12-4.5.36-1.77.71-3.94,1.12-5.62.09-.37.77-2,1.12-3.37.37-1.46.73-3.09,1.12-4.5.22-.79.78-2.27,1.12-3.37.31-1.01.77-2.3,1.12-3.37s.75-2.31,1.12-3.37.74-2.35,1.12-3.37c1.27-3.58,3.14-9.06,4.5-12.37,25.75-58.03,72.67-103.44,130.4-129.27.66-.29,1.74-.42,3.37-1.12,1.41-.53,2.13-1.08,2.25-1.12,1.06-.38,2.26-.74,3.37-1.12s2.31-.78,3.37-1.12,2.37-.82,3.37-1.12c1.11-.34,2.4-.84,3.37-1.12,1.25-.36,2.75-.95,3.37-1.12,1.42-.39,3.05-.76,4.5-1.12s3.1-.8,4.5-1.12,3.16-.84,4.5-1.12c1.48-.32,3.2-.86,4.5-1.12,2.12-.43,4.55-.74,6.74-1.12,2.15-.3,4.77-.9,6.74-1.12,2.81-.43,6.16-.8,8.99-1.12,4.57-.39,10.14-.98,14.61-1.12,6.66-.21,13.58-.21,20.23,0v-.02Z"/>
  <path class="st0" d="M2372.96,1076.97c2.28.2,5.41.81,7.87,1.12,1.96.24,4.69.77,6.74,1.12.74.13,2.99.81,4.5,1.12,1.28.27,3.12.78,4.5,1.12s3.14.74,4.5,1.12c.94.27,2.31.79,3.37,1.12s2.34.76,3.37,1.12c1.11.39,2.36.74,3.37,1.12,1.24.47,2.4.74,3.37,1.12,44.23,17.5,79.74,54.74,98.92,97.8.29.65.46,1.79,1.12,3.37.55,1.55,1.08,2.13,1.12,2.25.36,1.07.81,2.35,1.12,3.37.34,1.09.84,2.41,1.12,3.37.36,1.23.98,2.81,1.12,3.37.37,1.39.81,3.13,1.12,4.5s.86,3.21,1.12,4.5c.36,1.76.83,3.92,1.12,5.62s.89,4.01,1.12,5.62c.41,2.79.83,6.21,1.12,8.99.66,10.38.77,25.65,0,35.97-.2,2.27-.8,5.44-1.12,7.87-.21,1.93-.82,4.63-1.12,6.74-.23,1.55-.79,3.94-1.12,5.62-.24,1.23-.79,3.14-1.12,4.5-.09.37-.78,2.16-1.12,3.37-.4,1.48-.72,3.14-1.12,4.5-.3.99-.78,2.28-1.12,3.37-.33,1.03-.76,2.35-1.12,3.37-.04.12-.6.87-1.12,2.25-16.23,40.2-46.25,73.48-84.87,93.3-1.85-.4-2.48-15.95-2.81-19.11-.28-7.14-.79-14.28-1.12-21.36-.46-6.86-.95-14.54-1.12-21.36-.05-5.37-.97-25.34,1.12-28.66,1.01-1.61,11.26-5.09,14.05-7.31,14.27-11.32,20.73-22.23,26.42-39.34.47-1.27.73-2.11,1.12-3.37.29-.94.72-1.75,1.12-3.37.47-2.04.77-3.55,1.12-5.62.35-2.29.91-4.24,1.12-6.74,1.22-10.22,1.04-17.91,0-28.1-.21-2.44-.84-4.56-1.12-6.74-.33-2.06-.7-3.64-1.12-5.62-.37-1.72-.63-2.81-1.12-4.5-.34-1.29-.79-2.28-1.12-3.37-.38-1.23-.7-2.17-1.12-3.37-.5-1.27-.96-1.88-1.12-2.25-7.4-19.46-17.95-36.52-39.34-42.72-1.73-.49-2.58-.85-4.5-1.12-5.85-1.02-7.47-1.63-13.49,0-1.38.37-2.09.66-3.37,1.12-20.87,4.71-33.79,26.14-40.47,44.96-.54,1.36-.71,2.22-1.12,3.37-.44,1.22-.74,2.14-1.12,3.37-.4,1.57-.8,2.8-1.12,4.5-.52,2.1-.77,3.51-1.12,5.62-.28,2.18-.91,4.32-1.12,6.74-1.04,10.2-1.22,17.88,0,28.1.21,2.48.79,4.49,1.12,6.74.29,1.69.8,3.04,1.12,4.5.37,1.67.66,2.85,1.12,4.5.39,1.28.66,2.12,1.12,3.37.39,1.05.4,1.7,1.12,3.37,6.78,17.83,13.53,26.67,28.66,38.22,1.95,1.49,9.17,3.05,9.55,3.37.57.47,3.24,5.09,3.37,5.62.7,2.73-.18,8.92,0,12.37-.23,8.11-.83,16.54-1.12,24.73-.17,7.56-.64,16.01-1.12,23.61-.43,8.59-.65,17.29-1.12,25.85-.4,2.71-1.24,12.41-2.25,13.49-2.2-.92-3.65.83-4.5,1.12-1.1.38-3.47.53-5.62,1.12-1.62.45-4.94.86-6.74,1.12-2.69.42-6.32.88-8.99,1.12-10.3.78-26.81.8-37.1,0-2.29-.22-5.48-.77-7.87-1.12-1.84-.26-5.01-.69-6.74-1.12-1.89-.47-4.02-.64-5.62-1.12-1.26-.38-4.3-1.01-4.5-1.12-.54-.32-3.17-2.38-3.37-2.81.87-2.8-.73-5.34-1.12-7.31-.62-8.5-.63-17.28-1.12-25.85-.52-8.91-.7-18.04-1.12-26.98-.36-8.09-.97-16.72-1.12-24.73-.27-8.88-1-18.21-1.12-26.98.19-2.39-.48-5.88,0-7.87,2.06-8.57,18.07-10.86,23.61-26.98.38-1.1.72-1.55,1.12-3.37.67-3.02.86-4.83,1.12-7.87.18-2.29-.08-3.83,0-5.62.44-7.41-.17-15.04,0-22.48.02-2.66,0-5.25,0-7.87v-2.25c0-2.58-.01-5.31,0-7.87.21-18.6.65-37.63,0-56.21v-2.25c-.1-2.22.19-4.54,0-6.74-.02-.11.53.55,0-2.25-.64-4.56,1.4-3.34-2.25-5.62-3.39-2.12-8.81-1.47-12.37,0s-1.36.49-2.25,3.37c-4.45,14.41,1.65,92.19-1.12,96.11-.54.77-8.67.88-8.99.56-3.48-3.48,2.67-86.76,0-98.36-.89-1.87-2.56-1.31-3.37-1.69-3.88-1.8-7.35-1.72-11.24,0-.79.35-2.74-.61-3.37.56-.13,1.66.19,3.42,0,5.06-4.59,13.99,1.7,89.88-1.12,93.86-.65.92-7.21.92-7.87,0-2.26-3.19-.02-66.54-1.12-78.13-.18-6.11,1.74-18.86-2.25-21.36-3.39-2.12-8.81-1.47-12.37,0s-1.36.49-2.25,3.37c-3.69,11.94-2.17,100.25,0,115.78.26,2.72.43,4.06,1.12,6.74.42,1.61.47,1.83,1.12,3.37,5.84,16.75,23.14,21.61,24.73,28.1.85,3.45-.2,11.43,0,15.74-.15,8.41-.83,17.34-1.12,25.85-.18,7.98-.68,16.7-1.12,24.73-.38,8.62-.85,17.19-1.12,25.85-.51,5.58-1.94,11.13-1.12,16.86h-1.12c-38.19-20.71-65.73-51.39-83.18-91.05-.52-1.39-1.08-2.13-1.12-2.25-.37-1.06-.76-2.29-1.12-3.37s-.81-2.36-1.12-3.37c-.34-1.09-.88-2.52-1.12-3.37-.35-1.26-1.01-2.92-1.12-3.37-.35-1.4-.83-3.17-1.12-4.5-.32-1.44-.88-3.24-1.12-4.5-.34-1.76-.85-3.96-1.12-5.62-.39-2.4-.85-5.5-1.12-7.87-.33-2.75-.94-6.39-1.12-8.99-.61-8.35-.6-20.88,0-29.23.21-3.02.74-7.02,1.12-10.12.23-1.95.78-4.68,1.12-6.74.27-1.65.77-3.88,1.12-5.62.25-1.25.79-3.12,1.12-4.5s.74-3.15,1.12-4.5c.24-.85.79-2.3,1.12-3.37.32-1.01.77-2.32,1.12-3.37s.75-2.35,1.12-3.37c.43-1.16.73-2.35,1.12-3.37.55-1.43.82-2.64,1.12-3.37,17.99-42.74,54.81-77.67,96.67-96.67,1.76-.69,3.97-1.67,5.62-2.25,1.05-.37,2.3-.77,3.37-1.12s2.37-.82,3.37-1.12c1.11-.34,2.58-.9,3.37-1.12,1.38-.38,3.08-.77,4.5-1.12s3.17-.83,4.5-1.12c1.45-.32,3.23-.88,4.5-1.12,2.05-.4,4.69-.81,6.74-1.12,2.5-.25,5.63-.97,7.87-1.12,10.75-.75,27.52-.84,38.22,0l-.04.05Z"/>
  <path class="st0" d="M2316.75,1435.56c1.89.19,4.63.84,6.74,1.12,2.3.17,5.3.9,7.87,1.12,4.13.33,8.1.94,12.37,1.12,7.9.43,13.48.39,21.36,0,4.65-.21,8.94-.74,13.49-1.12,2.59-.23,5.54-.94,7.87-1.12,1.82-.26,4.81-1.04,5.62-1.12,1.55.08,5.98-.52,6.74.56.12,5.43-.17,10.89,0,16.3-.39,8.34-2.03,16.81-1.12,25.29-.26.72-3.77,2.56-4.5,2.81-1.71.6-5.6.69-7.87,1.12-2.9.51-7.13.85-10.12,1.12-12.23.86-30.48.83-42.72,0-3.47-.31-7.86-.6-11.24-1.12-1.84-.38-6.11-.88-6.74-1.12-1.24-.48-2.67-1.47-4.5-1.69.74-11.51-.5-22.87-1.12-34.29.18-2.78-.13-5.63,0-8.43l2.25-1.69c.59,1.96,3.95,1.04,5.62,1.12v.02Z"/>
  <g class="st1">
    <g class="st1">
      <path class="st4" d="M2708.99,1438.22c-10.3,0-20.12-1.7-29.46-5.1-9.33-3.4-17.58-8.37-24.75-14.9-7.17-6.53-12.81-14.63-16.91-24.3-4.11-9.67-6.16-20.83-6.16-33.5s2.05-23.83,6.16-33.5c4.11-9.67,9.74-17.8,16.91-24.4,7.17-6.6,15.42-11.57,24.75-14.9,9.33-3.33,19.15-5,29.46-5s20.27,1.67,29.46,5c9.18,3.33,17.4,8.3,24.64,14.9,7.24,6.6,12.92,14.73,17.02,24.4,4.11,9.67,6.16,20.83,6.16,33.5s-2.05,23.63-6.16,33.3c-4.11,9.67-9.78,17.8-17.02,24.4-7.25,6.6-15.46,11.6-24.64,15-9.18,3.4-19,5.1-29.46,5.1ZM2708.99,1430.82c7.46,0,13.92-1.8,19.38-5.4,5.45-3.6,9.97-8.57,13.55-14.9,3.58-6.33,6.27-13.8,8.06-22.4,1.79-8.6,2.69-17.83,2.69-27.7s-.9-19.27-2.69-27.8c-1.79-8.53-4.48-16-8.06-22.4-3.58-6.4-8.1-11.37-13.55-14.9-5.45-3.53-11.91-5.3-19.38-5.3s-13.97,1.77-19.49,5.3c-5.53,3.53-10.08,8.5-13.66,14.9-3.58,6.4-6.27,13.87-8.06,22.4-1.79,8.53-2.69,17.8-2.69,27.8s.9,19.1,2.69,27.7c1.79,8.6,4.48,16.07,8.06,22.4,3.58,6.33,8.14,11.3,13.66,14.9,5.52,3.6,12.02,5.4,19.49,5.4Z"/>
      <path class="st4" d="M2803.52,1292.82v-6.6h37.63v9.4h-3.36l-34.27-2.8ZM2803.52,1434.42v-6.6l34.27-2.8h6.5l34.27,2.8v6.6h-75.04ZM2824.57,1434.42c.3-11.33.45-22.77.45-34.3v-79.2c0-11.53-.15-23.1-.45-34.7h32.7c-.45,11.33-.71,22.9-.78,34.7-.08,11.8-.11,24.37-.11,37.7v5.4c0,12.13.04,24,.11,35.6.07,11.6.34,23.2.78,34.8h-32.7ZM2935.45,1437.02c-9.26,0-16.35-1.37-21.28-4.1-4.93-2.73-7.99-7.63-9.18-14.7l-8.06-29.8c-1.34-5.47-2.99-9.97-4.93-13.5-1.94-3.53-4.67-6.13-8.18-7.8-3.51-1.67-8.33-2.5-14.45-2.5h-28v-7h31.36c8.36,0,15.23-1.5,20.61-4.5s9.37-7,11.98-12c2.61-5,3.92-10.57,3.92-16.7,0-9.87-3.02-17.47-9.07-22.8-6.05-5.33-15.2-8-27.44-8h-31.58v-7.4h38.98c19.11,0,33.75,3.3,43.9,9.9,10.15,6.6,15.23,15.83,15.23,27.7,0,6.4-1.9,12.33-5.71,17.8-3.81,5.47-10.01,10.03-18.59,13.7-8.59,3.67-19.97,5.9-34.16,6.7v-2.2c11.95.4,21.17,1.83,27.66,4.3,6.5,2.47,11.35,6.03,14.56,10.7,3.21,4.67,5.63,10.53,7.28,17.6l10.08,39.6-15.46-6.2,34.72,2v6.6c-3.88.8-7.58,1.43-11.09,1.9-3.51.46-7.88.7-13.1.7Z"/>
      <path class="st4" d="M3054.62,1438.22c-17.33,0-32.48-3.2-45.47-9.6-12.99-6.4-23.11-15.43-30.35-27.1-7.25-11.67-10.86-25.5-10.86-41.5s3.7-29.57,11.09-41.1c7.39-11.53,17.7-20.47,30.91-26.8,13.22-6.33,28.48-9.5,45.81-9.5,9.86,0,18.7.93,26.54,2.8,7.84,1.87,15.19,4.6,22.06,8.2l-.45,35h-12.54l-11.42-39.8,16.13,5.4v8c-6.27-4.4-12.13-7.53-17.58-9.4-5.45-1.87-11.69-2.8-18.7-2.8-11.05,0-20.98,2.6-29.79,7.8-8.81,5.2-15.79,13.03-20.94,23.5-5.15,10.47-7.73,23.5-7.73,39.1,0,14.53,2.46,27.07,7.39,37.6,4.93,10.54,11.68,18.63,20.27,24.3,8.59,5.67,18.26,8.5,29.01,8.5,5.67,0,11.01-.53,16.02-1.6,5-1.07,10.04-2.53,15.12-4.4l-10.98,6v-16.4c0-8.93-.08-17.63-.22-26.1-.15-8.47-.38-17.17-.67-26.1h31.81c-.15,8.4-.34,16.87-.56,25.4-.22,8.53-.34,17.67-.34,27.4v10c-8.66,4.54-17.17,7.87-25.54,10-8.37,2.13-17.7,3.2-28,3.2ZM3052.83,1368.82v-6.6h70.78v6.6l-26.88,3h-12.54l-31.36-3Z"/>
      <path class="st4" d="M3123.61,1434.42v-6.6l22.4-2.6h4.03l24.42,2.6v6.6h-50.85ZM3139.29,1434.42l55.55-149h19.71l56.67,149h-32.26l-47.26-131.2h4.48l-.67,2.8-45.25,128.4h-10.98ZM3163.93,1386.22l1.79-6.8h71.01l1.57,6.8h-74.37ZM3212.99,1434.42v-6.6l30.24-2.8h11.2l31.14,2.8v6.6h-72.58Z"/>
      <path class="st4" d="M3296.09,1434.42v-6.6l23.74-2.8h6.05l30.69,2.8v6.6h-60.48ZM3424,1435.22l-100.13-130-.67-.6-7.62-10.2-18.59-1.6v-6.6h49.73l89.15,116.2-4.26,1.4-.67-59.4v-58.2h9.18v149h-16.13ZM3317.82,1434.42v-142.6h8.51l2.24,90.4v52.2h-10.75ZM3401.6,1292.82v-6.6h60.7v6.6l-23.52,2.8h-6.05l-31.14-2.8Z"/>
      <path class="st4" d="M3478.43,1292.82v-6.6h75.04v6.6l-34.5,2.8h-6.27l-34.27-2.8ZM3478.43,1434.42v-6.6l34.27-2.8h6.27l34.5,2.8v6.6h-75.04ZM3499.48,1434.42c.3-11.33.48-22.77.56-34.3.07-11.53.11-23.17.11-34.9v-9.6c0-11.6-.04-23.17-.11-34.7-.08-11.53-.26-23.1-.56-34.7h33.15c-.3,11.33-.49,22.83-.56,34.5-.08,11.67-.11,23.3-.11,34.9v9.4c0,11.6.04,23.17.11,34.7.07,11.53.26,23.1.56,34.7h-33.15Z"/>
      <path class="st4" d="M3657.85,1438.22c-12.4,0-23.86-1.6-34.38-4.8-10.53-3.2-19.71-8.03-27.55-14.5-7.84-6.47-13.93-14.47-18.26-24-4.33-9.53-6.5-20.7-6.5-33.5s2.2-24.13,6.61-34c4.4-9.87,10.56-18.13,18.48-24.8,7.91-6.67,17.17-11.67,27.78-15,10.6-3.33,21.88-5,33.82-5,10.15,0,18.93.93,26.32,2.8,7.39,1.87,14.67,4.67,21.84,8.4l-.45,35h-12.1l-11.65-40,16.13,4.8v6.8c-5.82-3.73-11.46-6.4-16.91-8-5.45-1.6-11.46-2.4-18.03-2.4-11.05,0-20.98,2.57-29.79,7.7-8.81,5.13-15.79,12.9-20.94,23.3-5.15,10.4-7.73,23.53-7.73,39.4s2.58,29,7.73,39.4c5.15,10.4,12.13,18.13,20.94,23.2,8.81,5.07,18.82,7.6,30.02,7.6,6.57,0,12.69-.83,18.37-2.5,5.67-1.67,11.57-4.5,17.7-8.5v7.2l-15.68,4.6,11.42-39.4h12.32l.45,34.6c-7.17,3.73-14.78,6.6-22.85,8.6-8.06,2-17.1,3-27.1,3Z"/>
      <path class="st4" d="M3719.45,1434.42v-6.6l22.4-2.6h4.03l24.42,2.6v6.6h-50.85ZM3735.13,1434.42l55.55-149h19.71l56.67,149h-32.26l-47.26-131.2h4.48l-.67,2.8-45.25,128.4h-10.98ZM3759.77,1386.22l1.79-6.8h71.01l1.57,6.8h-74.37ZM3808.83,1434.42v-6.6l30.24-2.8h11.2l31.14,2.8v6.6h-72.58Z"/>
    </g>
  </g>
  <g class="st1">
    <g class="st1">
      <path class="st4" d="M2716.66,1227.24c-12.18,0-23.43-1.6-33.77-4.8s-19.36-8.03-27.06-14.5c-7.7-6.47-13.68-14.47-17.93-24-4.25-9.53-6.38-20.7-6.38-33.5s2.16-24.13,6.49-34c4.32-9.87,10.37-18.13,18.15-24.8,7.77-6.67,16.86-11.67,27.28-15,10.41-3.33,21.48-5,33.22-5,9.97,0,18.59.93,25.85,2.8,7.26,1.87,14.41,4.67,21.45,8.4l-.44,35h-11.88l-11.44-40,15.84,4.8v6.8c-5.72-3.73-11.26-6.4-16.61-8-5.36-1.6-11.26-2.4-17.71-2.4-10.86,0-20.61,2.57-29.26,7.7-8.66,5.13-15.51,12.9-20.57,23.3-5.06,10.4-7.59,23.53-7.59,39.4s2.53,29,7.59,39.4c5.06,10.4,11.91,18.13,20.57,23.2,8.65,5.07,18.48,7.6,29.48,7.6,6.45,0,12.46-.83,18.04-2.5,5.57-1.67,11.36-4.5,17.38-8.5v7.2l-15.4,4.6,11.22-39.4h12.1l.44,34.6c-7.04,3.73-14.52,6.6-22.44,8.6-7.92,2-16.79,3-26.62,3Z"/>
      <path class="st4" d="M2816.54,1226.64c-9.24,0-16.83-2.37-22.77-7.1-5.94-4.73-8.91-11.3-8.91-19.7,0-5.73,1.39-10.77,4.18-15.1,2.78-4.33,7.44-8.2,13.97-11.6,6.52-3.4,15.29-6.5,26.29-9.3,5.86-1.46,12.43-3.07,19.69-4.8,7.26-1.73,13.82-3.2,19.69-4.4v5c-5.87,1.33-11.74,2.77-17.6,4.3-5.87,1.53-10.78,2.9-14.74,4.1-7.92,2.93-13.86,6.7-17.82,11.3-3.96,4.6-5.94,10.23-5.94,16.9,0,6.13,1.61,10.7,4.84,13.7,3.22,3,7.55,4.5,12.98,4.5,2.34,0,4.88-.5,7.59-1.5,2.71-1,5.87-2.8,9.46-5.4,3.59-2.6,7.81-6.3,12.65-11.1l3.52,10.6h-7.7c-4.26,4.13-8.25,7.67-11.99,10.6-3.74,2.93-7.78,5.17-12.1,6.7-4.33,1.53-9.43,2.3-15.29,2.3ZM2877.92,1226.44c-7.48,0-13.2-1.97-17.16-5.9-3.96-3.93-6.38-9.23-7.26-15.9v-57.4c0-7.2-.74-12.77-2.2-16.7-1.47-3.93-3.89-6.7-7.26-8.3-3.38-1.6-7.92-2.4-13.64-2.4-3.82,0-7.7.4-11.66,1.2s-8.58,2.2-13.86,4.2l13.64-5-2.2,15.4c-.44,5.73-2.02,9.8-4.73,12.2-2.72,2.4-5.98,3.6-9.79,3.6-7.19,0-11.66-3.07-13.42-9.2,1.46-9.07,6.63-16.2,15.51-21.4,8.87-5.2,21.01-7.8,36.41-7.8s25.33,3.07,32.01,9.2c6.67,6.13,10.01,16.13,10.01,30v52.2c0,4.67.66,7.87,1.98,9.6,1.32,1.73,3.15,2.6,5.5,2.6,1.61,0,3.15-.47,4.62-1.4,1.46-.93,3.22-2.67,5.28-5.2l3.74,2.8c-2.64,4.8-6.02,8.27-10.12,10.4-4.11,2.13-9.24,3.2-15.4,3.2Z"/>
      <path class="st4" d="M2928.08,1223.44c.29-7.73.47-15.57.55-23.5.07-7.93.11-15.77.11-23.5v-52.2h-18.48v-6.4l28.82-2.6-10.34,5,.22-2.2c1.02-12.67,3.37-22.67,7.04-30,3.66-7.33,8.21-13.2,13.64-17.6,5.57-4.67,11.4-8,17.49-10,6.08-2,12.35-3,18.81-3s11.73,1.03,16.72,3.1c4.98,2.07,8.14,5.5,9.46,10.3-.15,3.33-1.43,6.13-3.85,8.4-2.42,2.27-5.91,3.4-10.45,3.4-3.82,0-7.26-.97-10.34-2.9-3.08-1.93-6.09-5.3-9.02-10.1l-5.5-7.8v-1.8h10.34v1.6c-3.67.53-7.01,1.67-10.01,3.4-3.01,1.73-5.39,3.8-7.15,6.2-2.35,3.6-4.18,7.7-5.5,12.3-1.32,4.6-2.13,10-2.42,16.2-.3,6.2-.22,13.37.22,21.5v55.2c0,7.73.07,15.57.22,23.5.14,7.93.36,15.77.66,23.5h-31.24ZM2911.58,1223.44v-6l24.86-2h18.48l25.08,2v6h-68.42ZM2943.92,1124.24v-8h44.66v8h-44.66Z"/>
      <path class="st4" d="M3058.76,1226.64c-11.74,0-22.19-2.17-31.35-6.5-9.17-4.33-16.36-10.77-21.56-19.3-5.21-8.53-7.81-18.93-7.81-31.2s2.78-22.23,8.36-30.7c5.57-8.47,12.87-14.9,21.89-19.3,9.02-4.4,18.66-6.6,28.93-6.6,10.85,0,19.98,1.97,27.39,5.9,7.4,3.93,12.98,9.23,16.72,15.9,3.74,6.67,5.61,14.13,5.61,22.4,0,4.67-.44,8.73-1.32,12.2h-94.82v-7h56.1c4.69,0,7.88-1.17,9.57-3.5,1.68-2.33,2.53-6.17,2.53-11.5,0-8.8-2.06-15.6-6.16-20.4-4.11-4.8-9.68-7.2-16.72-7.2-4.84,0-9.32,1.67-13.42,5-4.11,3.33-7.37,8.47-9.79,15.4-2.42,6.93-3.63,15.8-3.63,26.6s1.68,19.9,5.06,26.9c3.37,7,8.03,12.1,13.97,15.3,5.94,3.2,12.72,4.8,20.35,4.8s14.33-1.33,19.69-4c5.35-2.67,10.01-6.33,13.97-11l3.96,2.6c-4.55,8-10.86,14.2-18.92,18.6-8.07,4.4-17.6,6.6-28.6,6.6ZM3042.04,1094.64c2.93-4.13,5.9-8.5,8.91-13.1,3-4.6,6.63-10.3,10.89-17.1,2.64-4.13,5.21-7.17,7.7-9.1,2.49-1.93,5.28-2.9,8.36-2.9,2.64,0,5.09.9,7.37,2.7,2.27,1.8,3.41,4.17,3.41,7.1,0,2.67-1.07,5.3-3.19,7.9-2.13,2.6-5.47,5.3-10.01,8.1-6.6,4.13-12.1,7.7-16.5,10.7-4.4,3-8.51,5.97-12.32,8.9l-4.62-3.2Z"/>
    </g>
  </g>
</svg>